<?xml version="1.0" encoding="utf-8"?>
<!-- Generator: Adobe Illustrator 21.0.0, SVG Export Plug-In . SVG Version: 6.00 Build 0)  -->
<svg version="1.1" id="Layer_1" xmlns="http://www.w3.org/2000/svg" xmlns:xlink="http://www.w3.org/1999/xlink" x="0px" y="0px"
	 viewBox="0 0 100.9 100.9" style="enable-background:new 0 0 100.9 100.9;" xml:space="preserve">
<style type="text/css">
	.st0{fill-rule:evenodd;clip-rule:evenodd;fill:#FFFFFF;}
	.st1{fill:#94C147;}
</style>
<path class="st0" d="M50.4,0c27.9,0,50.4,22.6,50.4,50.4c0,27.9-22.6,50.4-50.4,50.4C22.6,100.9,0,78.3,0,50.4C0,22.6,22.6,0,50.4,0
	z"/>
<g>
	<g>
		<path class="st1" d="M29.9,40.4c-1,0-1.8,0.3-2.5,1c-0.7,0.7-1,1.5-1,2.5v14.7c0,1,0.3,1.8,1,2.5c0.7,0.7,1.5,1,2.5,1
			c1,0,1.8-0.3,2.5-1c0.7-0.7,1-1.5,1-2.5V43.9c0-1-0.3-1.8-1-2.5S30.8,40.4,29.9,40.4z"/>
		<path class="st1" d="M58.2,27.2l2.4-4.5c0.2-0.3,0.1-0.5-0.2-0.7c-0.3-0.1-0.5-0.1-0.7,0.2l-2.5,4.5c-2.2-1-4.5-1.4-6.9-1.4
			c-2.4,0-4.7,0.5-6.9,1.4l-2.5-4.5c-0.2-0.3-0.4-0.3-0.7-0.2c-0.3,0.2-0.3,0.4-0.2,0.7l2.4,4.5c-2.5,1.3-4.4,3-5.9,5.3
			c-1.5,2.2-2.2,4.7-2.2,7.4h31.7c0-2.7-0.7-5.1-2.2-7.4C62.6,30.2,60.6,28.4,58.2,27.2z M44.1,33.7c-0.3,0.3-0.6,0.4-0.9,0.4
			c-0.4,0-0.7-0.1-0.9-0.4c-0.2-0.3-0.4-0.6-0.4-0.9s0.1-0.7,0.4-0.9c0.2-0.3,0.6-0.4,0.9-0.4s0.7,0.1,0.9,0.4
			c0.3,0.3,0.4,0.6,0.4,0.9C44.6,33.1,44.4,33.4,44.1,33.7z M58.6,33.7c-0.2,0.3-0.6,0.4-0.9,0.4S57,34,56.7,33.7
			c-0.3-0.3-0.4-0.6-0.4-0.9s0.1-0.7,0.4-0.9c0.3-0.3,0.6-0.4,0.9-0.4s0.7,0.1,0.9,0.4c0.2,0.3,0.4,0.6,0.4,0.9
			C59,33.1,58.8,33.4,58.6,33.7z"/>
		<path class="st1" d="M34.7,63.9c0,1.1,0.4,1.9,1.1,2.7c0.7,0.7,1.6,1.1,2.7,1.1H41l0,7.8c0,1,0.3,1.8,1,2.5s1.5,1,2.5,1
			c1,0,1.8-0.3,2.5-1s1-1.5,1-2.5v-7.8h4.7v7.8c0,1,0.3,1.8,1,2.5c0.7,0.7,1.5,1,2.5,1c1,0,1.8-0.3,2.5-1c0.7-0.7,1-1.5,1-2.5v-7.8
			h2.6c1,0,1.9-0.4,2.6-1.1c0.7-0.7,1.1-1.6,1.1-2.7V41H34.7V63.9z"/>
		<path class="st1" d="M71,40.4c-1,0-1.8,0.3-2.5,1c-0.7,0.7-1,1.5-1,2.5v14.7c0,1,0.3,1.8,1,2.5s1.5,1,2.5,1c1,0,1.8-0.3,2.5-1
			c0.7-0.7,1-1.5,1-2.5V43.9c0-1-0.3-1.8-1-2.5C72.8,40.7,72,40.4,71,40.4z"/>
	</g>
</g>
</svg>
