<?xml version="1.0" encoding="utf-8"?>
<!-- Generator: Adobe Illustrator 21.0.0, SVG Export Plug-In . SVG Version: 6.00 Build 0)  -->
<svg version="1.1" id="Layer_1" xmlns="http://www.w3.org/2000/svg" xmlns:xlink="http://www.w3.org/1999/xlink" x="0px" y="0px"
	 viewBox="0 0 34.6 26.3" style="enable-background:new 0 0 34.6 26.3;" xml:space="preserve">
<style type="text/css">
	.st0{fill:#C2C9D2;}
</style>
<g>
	<g>
		<path class="st0" d="M32.1,13.2c0,6.8-5.5,12.4-12.3,12.4C13.5,25.6,8.4,21,7.5,15l-0.9-0.2c0.8,6.5,6.3,11.6,13.1,11.6
			c7.3,0,13.2-5.9,13.2-13.1L32.1,13C32.1,13.1,32.1,13.1,32.1,13.2z M19.7,0.8c2.1,0,4.1,0.5,5.8,1.5l0.6-0.5
			C24.3,0.6,22.1,0,19.7,0C14,0,9,3.7,7.3,8.9l0.9,0C9.9,4.2,14.4,0.8,19.7,0.8z M30.6,7.2l4,1l0-2.1l-6.9-3l-3.2,2.5l-15.2,5
			L0,10.5l9.2,3.1l6.9,1l0.9,1.9l-1.5,4l0.9,2.3l3.4,0L19.4,22l-1.9-0.6l-0.2-1.5l3-2.9l4-1l1.8,1l1.1-0.3l-1.9-2.1l-2.6,0l0.1-0.1
			L26,11l2-1.1l4.2,1.4l1-0.7l-2.6-1.9L30.6,7.2z"/>
	</g>
</g>
</svg>
