<svg width="458" height="170" viewBox="0 0 458 170" version="1.1" xmlns="http://www.w3.org/2000/svg" xmlns:xlink="http://www.w3.org/1999/xlink">
    <title>Group 15</title>
    <desc>Created using Figma</desc>
    <g id="Canvas" transform="translate(-305 -2272)">
        <g id="Group 15">
            <g id="Union">
                <use xlink:href="#path0_fill" transform="translate(511 2350)" fill="#b0bac7"/>
                <use xlink:href="#path1_fill" transform="translate(511 2350)" fill="#b0bac7"/>
                <use xlink:href="#path2_fill" transform="translate(511 2350)" fill="#b0bac7"/>
                <use xlink:href="#path3_fill" transform="translate(511 2350)" fill="#b0bac7"/>
            </g>
            <g id="GROUP">
                <use xlink:href="#path4_fill" transform="translate(512 2420)" fill="#b0bac7"/>
                <use xlink:href="#path5_fill" transform="translate(512 2420)" fill="#b0bac7"/>
                <use xlink:href="#path6_fill" transform="translate(512 2420)" fill="#b0bac7"/>
                <use xlink:href="#path7_fill" transform="translate(512 2420)" fill="#b0bac7"/>
                <use xlink:href="#path8_fill" transform="translate(512 2420)" fill="#b0bac7"/>
            </g>
            <g id="Vector 2">
                <use xlink:href="#path9_fill" transform="translate(305 2272)" fill="#b0bac7"/>
            </g>
        </g>
    </g>
    <defs>
        <path id="path0_fill" d="M 10.08 0L 0 0L 0 58L 10.08 58L 10.08 0Z"/>
        <path id="path1_fill" d="M 132.048 58L 132.048 0L 178.416 0L 178.416 10L 142.128 10L 142.128 24L 170.352 24L 170.352 34L 142.128 34L 142.128 48L 178.416 48L 178.416 58L 132.048 58Z"/>
        <path id="path2_fill" d="M 211.95 29L 185.472 0L 199.045 0L 218.736 21.5674L 238.427 0L 252 0L 225.523 29L 252 58L 238.427 58L 218.736 36.4331L 199.045 58L 185.472 58L 211.95 29Z"/>
        <path id="path3_fill" d="M 100.8 10L 53.424 10L 53.424 58L 43.344 58L 43.344 10L 18.144 10L 18.144 0L 100.8 0C 111.838 0 121.968 7.90039 121.968 19C 121.968 28.6631 114.29 35.9019 105.019 37.6133L 128.016 58L 112.872 58L 90.311 38L 83.664 38L 83.664 58L 73.584 58L 73.584 28L 100.8 28C 107.577 28 111.888 23.3643 111.888 19C 111.888 14.6357 107.577 10 100.8 10Z"/>
        <path id="path4_fill" d="M 8.76099 22L 5.06495 22C 3.49071 22 2.24729 21.5552 1.33468 20.6656C 0.444894 19.7761 0 18.5329 0 16.9362L 0 5.06376C 0 3.46708 0.444894 2.22395 1.33468 1.33437C 2.24729 0.44479 3.49071 0 5.06495 0L 8.76099 0C 10.3352 0 11.5672 0.456196 12.457 1.36859C 13.3468 2.25817 13.7917 3.48989 13.7917 5.06376L 13.7917 6.46656C 13.7917 6.80871 13.632 6.97978 13.3126 6.97978L 11.7726 6.97978C 11.4532 6.97978 11.2935 6.80871 11.2935 6.46656L 11.2935 5.16641C 11.2935 3.18196 10.3466 2.18974 8.45299 2.18974L 5.33873 2.18974C 3.44508 2.18974 2.49825 3.18196 2.49825 5.16641L 2.49825 16.8336C 2.49825 18.818 3.44508 19.8103 5.33873 19.8103L 8.45299 19.8103C 10.3466 19.8103 11.2935 18.818 11.2935 16.8336L 11.2935 13.0016C 11.2935 12.7735 11.1908 12.6594 10.9855 12.6594L 7.59742 12.6594C 7.27801 12.6594 7.11831 12.5111 7.11831 12.2146L 7.11831 10.9487C 7.11831 10.6293 7.27801 10.4697 7.59742 10.4697L 13.1073 10.4697C 13.5636 10.4697 13.7917 10.7092 13.7917 11.1882L 13.7917 16.9362C 13.7917 18.5329 13.3468 19.7761 12.457 20.6656C 11.5672 21.5552 10.3352 22 8.76099 22Z"/>
        <path id="path5_fill" d="M 27.7209 22L 26.1808 22C 25.8614 22 25.7017 21.8403 25.7017 21.521L 25.7017 0.479005C 25.7017 0.159668 25.8614 0 26.1808 0L 34.052 0C 35.6263 0 36.8697 0.456196 37.7823 1.36859C 38.6949 2.25817 39.1512 3.48989 39.1512 5.06376L 39.1512 8.17729C 39.1512 9.45464 38.8432 10.5153 38.2272 11.3593C 37.6112 12.1804 36.7556 12.7278 35.6605 13.0016L 35.6605 13.1384L 39.6303 21.4526C 39.8357 21.8175 39.7216 22 39.2881 22L 37.7481 22C 37.3602 22 37.075 21.8403 36.8925 21.521L 33.0596 13.2411L 28.5422 13.2411C 28.3141 13.2411 28.2 13.3437 28.2 13.549L 28.2 21.521C 28.2 21.8403 28.0403 22 27.7209 22ZM 28.5422 11.154L 33.7098 11.154C 35.6719 11.154 36.653 10.1731 36.653 8.21151L 36.653 5.16641C 36.653 3.18196 35.6719 2.18974 33.7098 2.18974L 28.5422 2.18974C 28.3141 2.18974 28.2 2.29238 28.2 2.49767L 28.2 10.846C 28.2 11.0513 28.3141 11.154 28.5422 11.154Z"/>
        <path id="path6_fill" d="M 55.924 19.8103L 59.4148 19.8103C 61.3312 19.8103 62.2895 18.818 62.2895 16.8336L 62.2895 5.16641C 62.2895 3.18196 61.3312 2.18974 59.4148 2.18974L 55.924 2.18974C 54.0304 2.18974 53.0836 3.18196 53.0836 5.16641L 53.0836 16.8336C 53.0836 18.818 54.0304 19.8103 55.924 19.8103ZM 59.7228 22L 55.6503 22C 54.076 22 52.8326 21.5552 51.92 20.6656C 51.0302 19.7761 50.5853 18.5329 50.5853 16.9362L 50.5853 5.06376C 50.5853 3.46708 51.0302 2.22395 51.92 1.33437C 52.8326 0.44479 54.076 0 55.6503 0L 59.7228 0C 61.297 0 62.529 0.456196 63.4188 1.36859C 64.3314 2.25817 64.7877 3.48989 64.7877 5.06376L 64.7877 16.9362C 64.7877 18.5101 64.3314 19.7532 63.4188 20.6656C 62.529 21.5552 61.297 22 59.7228 22Z"/>
        <path id="path7_fill" d="M 88.3922 0L 89.9323 0C 90.2517 0 90.4114 0.148264 90.4114 0.44479L 90.4114 16.9362C 90.4114 18.5329 89.9665 19.7761 89.0767 20.6656C 88.1869 21.5552 86.9549 22 85.3806 22L 81.5819 22C 80.0077 22 78.7643 21.5552 77.8517 20.6656C 76.9619 19.7761 76.517 18.5329 76.517 16.9362L 76.517 0.479005C 76.517 0.159668 76.6767 0 76.9961 0L 78.5361 0C 78.8555 0 79.0152 0.159668 79.0152 0.479005L 79.0152 16.8336C 79.0152 18.818 79.9621 19.8103 81.8557 19.8103L 85.0726 19.8103C 86.9891 19.8103 87.9473 18.818 87.9473 16.8336L 87.9473 0.479005C 87.9473 0.159668 88.0956 0 88.3922 0Z"/>
        <path id="path8_fill" d="M 104.501 22L 102.961 22C 102.642 22 102.482 21.8403 102.482 21.521L 102.482 0.479005C 102.482 0.159668 102.642 0 102.961 0L 110.969 0C 112.544 0 113.776 0.456196 114.665 1.36859C 115.555 2.25817 116 3.48989 116 5.06376L 116 8.86159C 116 10.4583 115.555 11.7014 114.665 12.591C 113.776 13.4806 112.544 13.9254 110.969 13.9254L 105.323 13.9254C 105.094 13.9254 104.98 14.028 104.98 14.2333L 104.98 21.521C 104.98 21.8403 104.821 22 104.501 22ZM 105.323 11.7014L 110.627 11.7014C 112.544 11.7014 113.502 10.7206 113.502 8.75894L 113.502 5.16641C 113.502 3.18196 112.544 2.18974 110.627 2.18974L 105.323 2.18974C 105.094 2.18974 104.98 2.29238 104.98 2.49767L 104.98 11.3935C 104.98 11.5988 105.094 11.7014 105.323 11.7014Z"/>
        <path id="path9_fill" d="M 214.5 38L 233 51L 225 56L 196 46.5L 182 54.5L 159 80L 176.5 80L 190 95L 182 97L 169.5 90L 142 96.5L 120.5 117L 122.5 127L 135.5 130.5L 139 136L 114.5 136L 108 120L 118.5 92L 112.5 79L 64 72L 0 50.5L 65 51.5L 121 33.5L 171.5 17L 194 0L 241.5 20.5L 242 35L 213.5 27.5L 214.5 38Z"/>
    </defs>
</svg>