<svg xmlns="http://www.w3.org/2000/svg" viewBox="0 0 202.36 202.36"><defs><style>.cls-1{font-size:31.05px;letter-spacing:0.04em;}.cls-1,.cls-2,.cls-6,.cls-7{fill:#f5f5f5;}.cls-1,.cls-2{font-family:Alegreya-Bold, Alegreya Bold;font-weight:700;}.cls-2{font-size:22.73px;letter-spacing:0.04em;}.cls-3{letter-spacing:0.01em;}.cls-4{letter-spacing:0.04em;}.cls-5{letter-spacing:0.07em;}.cls-6{font-size:16.5px;font-family:Bebas, Bebas;letter-spacing:0.04em;}.cls-8{fill:#fff;}</style></defs><title>Ресурс 8</title><g id="Слой_2" data-name="Слой 2"><g id="Objects"><g id="_Группа_" data-name="&lt;Группа&gt;"><path id="_Составной_контур_" data-name="&lt;Составной контур&gt;" d="M101.18,15.81a85.37,85.37,0,1,0,85.37,85.37A85.37,85.37,0,0,0,101.18,15.81ZM69.38,41.48H133v3H69.38ZM133,160.87H69.38v-3H133Zm15-85L134.38,62.3l-8.94,8.94,2.51,2.51-2.13,2.13-2.51-2.5-2.5,2.5-2.13-2.13,2.51-2.51-8.94-8.94-8.94,8.94,2.51,2.51-2.13,2.13-2.51-2.5-2.5,2.5-2.13-2.13L99,71.24,90.11,62.3l-8.94,8.94,2.51,2.51-2.13,2.13L79,73.37l-2.51,2.5-2.13-2.13,2.51-2.51L68,62.3,54.41,75.87l-2.13-2.13L65.85,60.17,62,56.36l2.13-2.13L68,58l3.81-3.81,2.13,2.13-3.81,3.81L79,69.11,88,60.17l-3.81-3.81,2.13-2.13L90.11,58l3.81-3.81,2.13,2.13-3.81,3.81,8.94,8.94,8.94-8.94-3.81-3.81,2.13-2.13L112.25,58l3.81-3.81,2.13,2.13-3.81,3.81,8.94,8.94,8.94-8.94-3.81-3.81,2.13-2.13L134.38,58l3.81-3.81,2.13,2.13-3.81,3.81,13.57,13.57Z"/><text class="cls-1" transform="translate(47.87 104.65)">DESIGN</text><text class="cls-2" transform="translate(56.05 126.06)">Q<tspan class="cls-3" x="16.57" y="0">U</tspan><tspan class="cls-4" x="31.41" y="0">ALI</tspan><tspan class="cls-5" x="64.21" y="0">T</tspan><tspan x="77.05" y="0">Y</tspan></text><text class="cls-6" transform="translate(77.2 150)">-1980-</text><polygon id="_Контур_" data-name="&lt;Контур&gt;" points="98.08 9.55 101.18 7.3 104.28 9.55 103.1 5.9 106.2 3.65 102.36 3.65 101.18 0 99.99 3.65 96.16 3.65 99.26 5.9 98.08 9.55"/><polygon id="_Контур_2" data-name="&lt;Контур&gt;" points="82.21 11.48 84.88 8.72 88.33 10.41 86.53 7.02 89.19 4.26 85.41 4.92 83.61 1.54 83.08 5.34 79.3 6 82.75 7.68 82.21 11.48"/><polygon id="_Контур_3" data-name="&lt;Контур&gt;" points="66.79 12.31 66.92 16.14 69.07 12.96 72.76 14.02 70.4 10.99 72.54 7.81 68.94 9.13 66.57 6.1 66.71 9.94 63.1 11.25 66.79 12.31"/><polygon id="_Контур_4" data-name="&lt;Контур&gt;" points="51.88 19.63 52.68 23.38 54.24 19.88 58.05 20.28 55.2 17.71 56.76 14.2 53.44 16.12 50.59 13.55 51.39 17.31 48.06 19.23 51.88 19.63"/><polygon id="_Контур_5" data-name="&lt;Контур&gt;" points="38.47 29.43 39.91 32.98 40.83 29.26 44.66 29 41.41 26.96 42.34 23.24 39.4 25.7 36.14 23.67 37.58 27.23 34.64 29.7 38.47 29.43"/><polygon id="_Контур_6" data-name="&lt;Контур&gt;" points="26.96 41.41 29 44.66 29.26 40.83 32.98 39.91 29.43 38.47 29.7 34.64 27.23 37.58 23.67 36.14 25.7 39.4 23.24 42.34 26.96 41.41"/><polygon id="_Контур_7" data-name="&lt;Контур&gt;" points="14.2 56.76 17.71 55.2 20.28 58.05 19.88 54.24 23.38 52.68 19.63 51.88 19.23 48.06 17.31 51.39 13.55 50.59 16.12 53.44 14.2 56.76"/><polygon id="_Контур_8" data-name="&lt;Контур&gt;" points="7.81 72.54 10.99 70.4 14.02 72.76 12.96 69.07 16.14 66.92 12.31 66.79 11.25 63.1 9.94 66.71 6.1 66.57 9.13 68.94 7.81 72.54"/><polygon id="_Контур_9" data-name="&lt;Контур&gt;" points="4.26 89.19 7.02 86.53 10.41 88.33 8.72 84.88 11.48 82.21 7.68 82.75 6 79.3 5.34 83.08 1.54 83.61 4.92 85.41 4.26 89.19"/><polygon id="_Контур_10" data-name="&lt;Контур&gt;" points="3.65 106.2 5.9 103.1 9.55 104.28 7.3 101.18 9.55 98.08 5.9 99.26 3.65 96.16 3.65 99.99 0 101.18 3.65 102.36 3.65 106.2"/><polygon id="_Контур_11" data-name="&lt;Контур&gt;" points="5.34 119.28 6 123.06 7.68 119.61 11.48 120.15 8.72 117.48 10.41 114.03 7.02 115.83 4.26 113.17 4.92 116.95 1.54 118.75 5.34 119.28"/><polygon id="_Контур_12" data-name="&lt;Контур&gt;" points="11.25 139.26 12.31 135.57 16.14 135.44 12.96 133.29 14.02 129.6 10.99 131.96 7.81 129.82 9.13 133.42 6.1 135.78 9.94 135.65 11.25 139.26"/><polygon id="_Контур_13" data-name="&lt;Контур&gt;" points="17.31 150.97 19.23 154.29 19.63 150.48 23.38 149.68 19.88 148.12 20.28 144.3 17.71 147.16 14.2 145.59 16.12 148.92 13.55 151.77 17.31 150.97"/><polygon id="_Контур_14" data-name="&lt;Контур&gt;" points="29.26 161.53 29 157.7 26.96 160.95 23.24 160.02 25.7 162.96 23.67 166.22 27.23 164.78 29.7 167.72 29.43 163.89 32.98 162.45 29.26 161.53"/><polygon id="_Контур_15" data-name="&lt;Контур&gt;" points="40.83 173.1 39.91 169.37 38.47 172.93 34.64 172.66 37.58 175.13 36.14 178.69 39.4 176.65 42.34 179.12 41.41 175.4 44.66 173.36 40.83 173.1"/><polygon id="_Контур_16" data-name="&lt;Контур&gt;" points="54.24 182.48 52.68 178.98 51.88 182.73 48.06 183.13 51.39 185.05 50.59 188.8 53.44 186.24 56.76 188.16 55.2 184.65 58.05 182.08 54.24 182.48"/><polygon id="_Контур_17" data-name="&lt;Контур&gt;" points="68.94 193.23 72.54 194.55 70.4 191.37 72.76 188.34 69.07 189.4 66.92 186.22 66.79 190.05 63.1 191.11 66.71 192.42 66.57 196.26 68.94 193.23"/><polygon id="_Контур_18" data-name="&lt;Контур&gt;" points="83.61 200.82 85.41 197.43 89.19 198.1 86.53 195.34 88.33 191.95 84.88 193.63 82.21 190.87 82.75 194.67 79.3 196.36 83.08 197.02 83.61 200.82"/><polygon id="_Контур_19" data-name="&lt;Контур&gt;" points="99.99 198.71 101.18 202.36 102.36 198.71 106.2 198.71 103.1 196.46 104.28 192.81 101.18 195.06 98.08 192.81 99.26 196.46 96.16 198.71 99.99 198.71"/><polygon id="_Контур_20" data-name="&lt;Контур&gt;" points="116.95 197.43 118.75 200.82 119.28 197.02 123.06 196.36 119.61 194.67 120.15 190.87 117.48 193.63 114.03 191.95 115.83 195.34 113.17 198.1 116.95 197.43"/><polygon id="_Контур_21" data-name="&lt;Контур&gt;" points="133.42 193.23 135.78 196.26 135.65 192.42 139.26 191.11 135.57 190.05 135.44 186.22 133.29 189.4 129.6 188.34 131.96 191.37 129.82 194.55 133.42 193.23"/><polygon id="_Контур_22" data-name="&lt;Контур&gt;" points="150.48 182.73 149.68 178.98 148.12 182.48 144.3 182.08 147.16 184.65 145.59 188.16 148.92 186.24 151.77 188.8 150.97 185.05 154.29 183.13 150.48 182.73"/><polygon id="_Контур_23" data-name="&lt;Контур&gt;" points="162.96 176.65 166.22 178.69 164.78 175.13 167.72 172.66 163.89 172.93 162.45 169.37 161.53 173.1 157.7 173.36 160.95 175.4 160.02 179.12 162.96 176.65"/><polygon id="_Контур_24" data-name="&lt;Контур&gt;" points="175.13 164.78 178.69 166.22 176.65 162.96 179.12 160.02 175.4 160.95 173.36 157.7 173.1 161.53 169.37 162.45 172.93 163.89 172.66 167.72 175.13 164.78"/><polygon id="_Контур_25" data-name="&lt;Контур&gt;" points="184.65 147.16 182.08 144.3 182.48 148.12 178.98 149.68 182.73 150.48 183.13 154.29 185.05 150.97 188.8 151.77 186.24 148.92 188.16 145.59 184.65 147.16"/><polygon id="_Контур_26" data-name="&lt;Контур&gt;" points="194.55 129.82 191.37 131.96 188.34 129.6 189.4 133.29 186.22 135.44 190.05 135.57 191.11 139.26 192.42 135.65 196.26 135.78 193.23 133.42 194.55 129.82"/><polygon id="_Контур_27" data-name="&lt;Контур&gt;" points="198.1 113.17 195.34 115.83 191.95 114.03 193.63 117.48 190.87 120.15 194.67 119.61 196.36 123.06 197.02 119.28 200.82 118.75 197.43 116.95 198.1 113.17"/><polygon id="_Контур_28" data-name="&lt;Контур&gt;" points="198.71 96.16 196.46 99.26 192.81 98.08 195.06 101.18 192.81 104.28 196.46 103.1 198.71 106.2 198.71 102.36 202.36 101.18 198.71 99.99 198.71 96.16"/><polygon id="_Контур_29" data-name="&lt;Контур&gt;" points="190.87 82.21 193.63 84.88 191.95 88.33 195.34 86.53 198.1 89.19 197.43 85.41 200.82 83.61 197.02 83.08 196.36 79.3 194.67 82.75 190.87 82.21"/><polygon id="_Контур_30" data-name="&lt;Контур&gt;" points="189.4 69.07 188.34 72.76 191.37 70.4 194.55 72.54 193.23 68.94 196.26 66.57 192.42 66.71 191.11 63.1 190.05 66.79 186.22 66.92 189.4 69.07"/><polygon id="_Контур_31" data-name="&lt;Контур&gt;" points="182.48 54.24 182.08 58.05 184.65 55.2 188.16 56.76 186.24 53.44 188.8 50.59 185.05 51.39 183.13 48.06 182.73 51.88 178.98 52.68 182.48 54.24"/><polygon id="_Контур_32" data-name="&lt;Контур&gt;" points="173.1 40.83 173.36 44.66 175.4 41.41 179.12 42.34 176.65 39.4 178.69 36.14 175.13 37.58 172.66 34.64 172.93 38.47 169.37 39.91 173.1 40.83"/><polygon id="_Контур_33" data-name="&lt;Контур&gt;" points="161.53 29.26 162.45 32.98 163.89 29.43 167.72 29.7 164.78 27.23 166.22 23.67 162.96 25.7 160.02 23.24 160.95 26.96 157.7 29 161.53 29.26"/><polygon id="_Контур_34" data-name="&lt;Контур&gt;" points="148.12 19.88 149.68 23.38 150.48 19.63 154.29 19.23 150.97 17.31 151.77 13.55 148.92 16.12 145.59 14.2 147.16 17.71 144.3 20.28 148.12 19.88"/><polygon id="_Контур_35" data-name="&lt;Контур&gt;" points="133.29 12.96 135.44 16.14 135.57 12.31 139.26 11.25 135.65 9.94 135.78 6.1 133.42 9.13 129.82 7.81 131.96 10.99 129.6 14.02 133.29 12.96"/><polygon id="_Контур_36" data-name="&lt;Контур&gt;" points="114.03 10.41 117.48 8.72 120.15 11.48 119.61 7.68 123.06 6 119.28 5.34 118.75 1.54 116.95 4.92 113.17 4.26 115.83 7.02 114.03 10.41"/><polygon id="_Контур_37" data-name="&lt;Контур&gt;" class="cls-7" points="140.33 56.36 138.2 54.23 134.38 58.04 130.57 54.23 128.44 56.36 132.25 60.17 123.31 69.11 114.38 60.17 118.19 56.36 116.06 54.23 112.25 58.04 108.43 54.23 106.3 56.36 110.12 60.17 101.18 69.11 92.24 60.17 96.06 56.36 93.93 54.23 90.11 58.04 86.3 54.23 84.17 56.36 87.98 60.17 79.05 69.11 70.11 60.17 73.92 56.36 71.79 54.23 67.98 58.04 64.16 54.23 62.03 56.36 65.85 60.17 52.28 73.74 54.41 75.87 67.98 62.3 76.92 71.24 74.41 73.74 76.54 75.87 79.05 73.37 81.55 75.87 83.68 73.74 81.17 71.24 90.11 62.3 99.05 71.24 96.54 73.74 98.67 75.87 101.18 73.37 103.69 75.87 105.81 73.74 103.31 71.24 112.25 62.3 121.18 71.24 118.68 73.74 120.81 75.87 123.31 73.37 125.82 75.87 127.95 73.74 125.44 71.24 134.38 62.3 147.95 75.87 150.08 73.74 136.51 60.17 140.33 56.36"/><rect id="_Контур_38" data-name="&lt;Контур&gt;" class="cls-7" x="69.38" y="41.48" width="63.6" height="3.01"/><rect id="_Контур_39" data-name="&lt;Контур&gt;" class="cls-8" x="69.38" y="157.86" width="63.6" height="3.01"/></g></g></g></svg>