<svg xmlns="http://www.w3.org/2000/svg" viewBox="0 0 180.09 185.41"><defs><style>.cls-1{font-size:20.33px;}.cls-1,.cls-4,.cls-7{fill:#1d1d1b;}.cls-1,.cls-4,.cls-6,.cls-7{font-family:Bebas, Bebas;}.cls-2{letter-spacing:0em;}.cls-3{letter-spacing:0.01em;}.cls-4{font-size:33.45px;}.cls-5{letter-spacing:-0.01em;}.cls-6{font-size:12.04px;fill:#fff;}.cls-7{font-size:9.92px;}</style></defs><title>Ресурс 2</title><g id="Слой_2" data-name="Слой 2"><g id="Objects"><g id="_Группа_" data-name="&lt;Группа&gt;"><g id="_Группа_2" data-name="&lt;Группа&gt;"><text class="cls-1" transform="translate(24.86 118.61)"><tspan xml:space="preserve"> -ba</tspan><tspan class="cls-2" x="31.91" y="0">r</tspan><tspan x="38.64" y="0">bersho</tspan><tspan class="cls-3" x="97.53" y="0">p</tspan><tspan x="109.4" y="0">-</tspan></text></g><text class="cls-4" transform="translate(33.19 88.64)"><tspan xml:space="preserve"> hips</tspan><tspan class="cls-5" x="65.77" y="0">t</tspan><tspan x="76.64" y="0">er</tspan></text><g id="_Группа_3" data-name="&lt;Группа&gt;"><text class="cls-6" transform="matrix(0.86, -0.52, 0.52, 0.86, 49.61, 27.77)">r</text><text class="cls-6" transform="translate(52.75 25.83) rotate(-27.47)">e</text><text class="cls-6" transform="translate(58 23.13) rotate(-23.74)">t</text><text class="cls-6" transform="translate(61.56 21.57) rotate(-20.77)">r</text><text class="cls-6" transform="translate(64.98 20.21) rotate(-16.92)">o</text><text class="cls-6" transform="translate(71.21 18.38) rotate(-13.49)"> </text><text class="cls-6" transform="translate(73.62 17.8) rotate(-11.59)"> </text><text class="cls-6" transform="translate(76.04 17.27) rotate(-8.85)">s</text><text class="cls-6" transform="translate(80.6 16.54) rotate(-4.94)">a</text><text class="cls-6" transform="translate(86.29 16.08) rotate(-1.5)">f</text><text class="cls-6" transform="translate(89.51 15.95) rotate(1.86)">e</text><text class="cls-6" transform="translate(95.45 16.19) rotate(5.03)"> </text><text class="cls-6" transform="translate(97.91 16.4) rotate(6.91)"> </text><text class="cls-6" transform="matrix(0.98, 0.18, -0.18, 0.98, 100.33, 16.63)">b</text><text class="cls-6" transform="matrix(0.97, 0.24, -0.24, 0.97, 106.94, 17.9)">l</text><text class="cls-6" transform="translate(109.59 18.52) rotate(17.26)">a</text><text class="cls-6" transform="translate(114.98 20.16) rotate(21.96)">d</text><text class="cls-6" transform="matrix(0.89, 0.45, -0.45, 0.89, 121.13, 22.65)">e</text><text class="cls-6" transform="matrix(0.86, 0.51, -0.51, 0.86, 126.38, 25.32)">s</text></g><text class="cls-6" transform="matrix(0.81, 0.59, -0.59, 0.81, 38.29, 162.84)">t</text><text class="cls-6" transform="translate(41.74 165.33) rotate(32.99)">r</text><text class="cls-6" transform="translate(45.22 167.61) rotate(29.59)">a</text><text class="cls-6" transform="translate(50.62 170.68) rotate(25.09)">d</text><text class="cls-6" transform="translate(57.06 173.62) rotate(21.67)">i</text><text class="cls-6" transform="matrix(0.94, 0.33, -0.33, 0.94, 59.87, 174.75)">t</text><text class="cls-6" transform="translate(63.84 176.12) rotate(16.81)">i</text><text class="cls-6" transform="translate(66.84 177.07) rotate(13.42)">o</text><text class="cls-6" transform="translate(73.67 178.69) rotate(8.69)">n</text><text class="cls-6" transform="translate(80.65 179.72) rotate(4.28)">a</text><text class="cls-6" transform="translate(86.72 180.13) rotate(1.25)">l</text><text class="cls-6" transform="translate(89.74 180.19) rotate(-0.93)"> </text><text class="cls-6" transform="translate(92.57 180.21) rotate(-3.91)">b</text><text class="cls-6" transform="translate(99.8 179.68) rotate(-8.46)">e</text><text class="cls-6" transform="matrix(0.98, -0.22, 0.22, 0.98, 106.14, 178.72)">a</text><text class="cls-6" transform="translate(112.09 177.34) rotate(-16.17)">r</text><text class="cls-6" transform="translate(116.07 176.17) rotate(-18.5)"> </text><text class="cls-6" transform="translate(118.7 175.31) rotate(-21.1)">s</text><text class="cls-6" transform="translate(123.42 173.47) rotate(-24.24)">t</text><text class="cls-6" transform="translate(127.43 171.68) rotate(-27.75)">y</text><text class="cls-6" transform="translate(132.68 168.87) rotate(-30.79)">l</text><text class="cls-6" transform="translate(135.35 167.32) rotate(-33.91)">e</text><path id="_Составной_контур_" data-name="&lt;Составной контур&gt;" d="M159.93,42.42l-.19-.27-5-.62-1.44,4.72.22.3a77.87,77.87,0,0,1,15,42.82h-3.45v1.51h3.49c0,.63,0,1.25,0,1.88s0,1.32,0,2h-3.49v1.51h3.45A77.87,77.87,0,0,1,153.56,139l-.22.3,1.44,4.72,5-.62.19-.27A85.43,85.43,0,0,0,176.1,96.25h4V94.74h-4c0-.66,0-1.32,0-2s0-1.26,0-1.88h4V89.37h-4A85.43,85.43,0,0,0,159.93,42.42Zm14.73,50.34c0,.66,0,1.32,0,2h-4.56c0-.66,0-1.32,0-2s0-1.26,0-1.88h4.56C174.64,91.51,174.66,92.13,174.66,92.76Zm-18.81,49.58-.85-2.78a79.36,79.36,0,0,0,15-43.31h4.57A83.92,83.92,0,0,1,158.9,142Zm14.17-53A79.36,79.36,0,0,0,155,46l.85-2.78,3,.38a83.93,83.93,0,0,1,15.69,45.81Z"/><path id="_Составной_контур_2" data-name="&lt;Составной контур&gt;" d="M19.89,143.11l.19.27,5,.62,1.44-4.72-.22-.3A77.88,77.88,0,0,1,11.31,96.25H15V94.74H11.27c0-.66,0-1.32,0-2s0-1.26,0-1.88H15V89.37H11.31A77.89,77.89,0,0,1,26.26,46.55l.22-.3L25,41.53l-5,.62-.19.27a85.42,85.42,0,0,0-16.17,47H0v1.51H3.69c0,.63,0,1.25,0,1.88s0,1.32,0,2H0v1.51H3.72A85.41,85.41,0,0,0,19.89,143.11ZM5.16,92.76c0-.63,0-1.26,0-1.88H9.76c0,.63,0,1.25,0,1.88s0,1.32,0,2H5.2C5.18,94.08,5.16,93.42,5.16,92.76ZM24,43.19,24.82,46a79.38,79.38,0,0,0-15,43.4H5.23A83.92,83.92,0,0,1,20.92,43.57ZM9.8,96.25a79.38,79.38,0,0,0,15,43.31L24,142.34l-3-.38A83.91,83.91,0,0,1,5.23,96.25Z"/><path id="_Контур_" data-name="&lt;Контур&gt;" d="M32,50.66a71.69,71.69,0,0,1,116,0l4.16-11.94,12.85-.53a92.78,92.78,0,0,0-150,0l12.85.53Z"/><path id="_Контур_2" data-name="&lt;Контур&gt;" d="M152.21,146.69l-4.16-11.94a71.68,71.68,0,0,1-116,0l-4.16,11.94L15,147.23a92.78,92.78,0,0,0,150,0Z"/><text class="cls-7" transform="translate(66.97 138.45) rotate(26.73)">s</text><text class="cls-7" transform="translate(70.76 140.31) rotate(22.57)">i</text><text class="cls-7" transform="translate(73.23 141.4) rotate(17.37)">n</text><text class="cls-7" transform="translate(78.95 143.13) rotate(10.76)">c</text><text class="cls-7" transform="matrix(1, 0.08, -0.08, 1, 83.69, 144.02)">e</text><text class="cls-7" transform="translate(89.03 144.4) rotate(-0.93)"> </text><text class="cls-7" transform="translate(91.43 144.43) rotate(-4.67)">1</text><text class="cls-7" transform="matrix(0.98, -0.2, 0.2, 0.98, 96.97, 143.95)">9</text><text class="cls-7" transform="translate(102.42 142.82) rotate(-18.14)">8</text><text class="cls-7" transform="translate(107.7 141.06) rotate(-24.9)">4</text></g></g></g></svg>