<svg xmlns="http://www.w3.org/2000/svg" viewBox="0 0 153.89 152.18"><defs><style>.cls-1{font-size:75.14px;fill:#1d1d1b;font-family:Bebas, Bebas;}</style></defs><title>Ресурс 9</title><g id="Слой_2" data-name="Слой 2"><g id="Objects"><g id="_Группа_" data-name="&lt;Группа&gt;"><text class="cls-1" transform="translate(55.25 107.09)">a</text><path id="_Составной_контур_" data-name="&lt;Составной контур&gt;" d="M133.42,104.55,148.2,89.77a19.48,19.48,0,0,0,0-27.52L133.42,47.47V19.53H105.49L90.71,4.75A19.36,19.36,0,0,0,83.24.11l.33,19.8-12.28.2L71,0a19.35,19.35,0,0,0-7.77,4.75L48.41,19.53H20.47V47.47L5.69,62.25a19.48,19.48,0,0,0,0,27.52l14.78,14.78v27.93H48.41l14.78,14.78a19.37,19.37,0,0,0,6.92,4.45l-.32-19.6,12.28-.2.33,20.28a19.34,19.34,0,0,0,8.31-4.92l14.78-14.78h27.93V104.55Zm-12.88,12.93v4.6h8.27v5.8H25.08v-5.8h8.75v-4.6H25.08v-5.85h8.75V107H25.08V46.71h8.75v-4.6H25.08V36.26h8.75v-4.6H25.08V24.14H128.82v7.52h-8.27v4.6h8.27v5.85h-8.27v4.6h8.27V107h-8.27v4.6h8.27v5.85Z"/></g></g></g></svg>