<svg xmlns="http://www.w3.org/2000/svg" viewBox="0 0 177.83 181.65"><defs><style>.cls-1{font-size:58.96px;}.cls-1,.cls-2{fill:#1d1d1b;font-family:BebasNeueBook, BebasNeueBook;}.cls-2{font-size:13.23px;}.cls-3{letter-spacing:0em;}.cls-4{letter-spacing:-0.01em;}.cls-5{letter-spacing:0em;}</style></defs><title>Ресурс 5</title><g id="Слой_2" data-name="Слой 2"><g id="Objects"><g id="_Группа_" data-name="&lt;Группа&gt;"><text class="cls-1" transform="translate(29.63 109.15)">sales</text><text class="cls-2" transform="translate(62.4 57.73)">ch<tspan class="cls-3" x="13.27" y="0">r</tspan><tspan x="17.66" y="0">istmas</tspan></text><text class="cls-2" transform="translate(60.86 131.64)">de<tspan class="cls-4" x="14.1" y="0">c</tspan><tspan class="cls-5" x="19.94" y="0">ember</tspan><tspan x="14.47" y="15.88">2015</tspan></text><path id="_Составной_контур_" data-name="&lt;Составной контур&gt;" d="M169.65,96.65l7.1-7.52L169.43,82l7.68-13-12.93-8,3.14-9.86-9.71-3.28,1.27-15L143.8,31.33,142.36,21.1,132.2,22.35,126.83,8.26l-14.27,5.16-5.75-8.61-8.62,5.55L87.26,0,76.63,10.82l-8.9-5.26-5.36,8.73L48,9.7,43.14,24.07l-10.3-.86-1,10.18L16.86,35.48,18.7,50.55,9,54.23l3.49,9.64L0,72.23,8.19,85l-7.1,7.52L8.4,99.68l-7.68,13,12.93,8-3.14,9.86,9.71,3.28-1.27,15L34,150.31l1.44,10.23,10.16-1.24L51,173.39l14.27-5.16L71,176.84l8.62-5.55,10.93,10.35,10.63-10.82,8.9,5.26,5.36-8.73,14.36,4.59,4.87-14.37,10.3.86,1-10.18L161,146.17l-1.84-15.07,9.66-3.68-3.49-9.64,12.52-8.37Zm-13.43,45.87-22,3.07-7.11,21L106,159.85,90.46,175.66l-16.1-15.25L53.5,167.94l-7.89-20.72-22.06-2.29,1.87-22.1L6.54,111.21l11.3-19.08-12-18.67L24.3,61.14l-2.69-22,22-3.07,7.11-21L71.82,21.8,87.37,6l16.1,15.25,20.86-7.54,7.89,20.72,22.06,2.29-1.87,22.1,18.88,11.62L160,89.52l12,18.67-18.44,12.32Z"/><circle id="_Контур_" data-name="&lt;Контур&gt;" cx="88.2" cy="30.64" r="4.52"/></g></g></g></svg>