<svg xmlns="http://www.w3.org/2000/svg" viewBox="0 0 189.02 152.69"><defs><style>.cls-1{font-size:25.56px;}.cls-1,.cls-5,.cls-8{fill:#1d1d1b;font-family:Bebas, Bebas;}.cls-2{letter-spacing:0em;}.cls-3{letter-spacing:0em;}.cls-4{letter-spacing:0.01em;}.cls-5{font-size:42.07px;}.cls-6{letter-spacing:-0.01em;}.cls-7{letter-spacing:0em;}.cls-8{font-size:12.47px;}</style></defs><title>Ресурс 3</title><g id="Слой_2" data-name="Слой 2"><g id="Objects"><g id="_Группа_" data-name="&lt;Группа&gt;"><path id="_Составной_контур_" data-name="&lt;Составной контур&gt;" d="M174.25,20.18V18.28H14.77v1.89A12.89,12.89,0,0,1,1.89,33.05H0V75.12H1.89A12.89,12.89,0,0,1,14.77,88v1.89H174.25V88a12.89,12.89,0,0,1,12.88-12.88H189V33.05h-1.89A12.89,12.89,0,0,1,174.25,20.18Zm11,51.26A16.7,16.7,0,0,0,170.57,86.1H18.45A16.7,16.7,0,0,0,3.79,71.44V36.73A16.7,16.7,0,0,0,18.45,22.07H170.57a16.7,16.7,0,0,0,14.66,14.66Z"/><polygon id="_Контур_" data-name="&lt;Контур&gt;" points="23.79 0 20.89 2.9 17.98 0 15.3 2.68 18.21 5.58 15.3 8.48 17.98 11.16 20.89 8.26 23.79 11.16 26.47 8.48 23.56 5.58 26.47 2.68 23.79 0"/><polygon id="_Контур_2" data-name="&lt;Контур&gt;" points="42.3 0 39.4 2.9 36.5 0 33.82 2.68 36.72 5.58 33.82 8.48 36.5 11.16 39.4 8.26 42.3 11.16 44.98 8.48 42.08 5.58 44.98 2.68 42.3 0"/><polygon id="_Контур_3" data-name="&lt;Контур&gt;" points="60.81 0 57.91 2.9 55.01 0 52.33 2.68 55.23 5.58 52.33 8.48 55.01 11.16 57.91 8.26 60.81 11.16 63.49 8.48 60.59 5.58 63.49 2.68 60.81 0"/><polygon id="_Контур_4" data-name="&lt;Контур&gt;" points="79.33 0 76.43 2.9 73.52 0 70.84 2.68 73.75 5.58 70.84 8.48 73.52 11.16 76.43 8.26 79.33 11.16 82.01 8.48 79.11 5.58 82.01 2.68 79.33 0"/><polygon id="_Контур_5" data-name="&lt;Контур&gt;" points="97.84 0 94.94 2.9 92.04 0 89.36 2.68 92.26 5.58 89.36 8.48 92.04 11.16 94.94 8.26 97.84 11.16 100.52 8.48 97.62 5.58 100.52 2.68 97.84 0"/><polygon id="_Контур_6" data-name="&lt;Контур&gt;" points="116.36 0 113.45 2.9 110.55 0 107.87 2.68 110.78 5.58 107.87 8.48 110.55 11.16 113.45 8.26 116.36 11.16 119.04 8.48 116.13 5.58 119.04 2.68 116.36 0"/><polygon id="_Контур_7" data-name="&lt;Контур&gt;" points="134.87 0 131.97 2.9 129.07 0 126.39 2.68 129.29 5.58 126.39 8.48 129.07 11.16 131.97 8.26 134.87 11.16 137.55 8.48 134.65 5.58 137.55 2.68 134.87 0"/><polygon id="_Контур_8" data-name="&lt;Контур&gt;" points="153.38 0 150.48 2.9 147.58 0 144.9 2.68 147.8 5.58 144.9 8.48 147.58 11.16 150.48 8.26 153.38 11.16 156.06 8.48 153.16 5.58 156.06 2.68 153.38 0"/><polygon id="_Контур_9" data-name="&lt;Контур&gt;" points="171.9 0 169 2.9 166.09 0 163.41 2.68 166.32 5.58 163.41 8.48 166.09 11.16 169 8.26 171.9 11.16 174.58 8.48 171.68 5.58 174.58 2.68 171.9 0"/><g id="_Группа_2" data-name="&lt;Группа&gt;"><text class="cls-1" transform="translate(13.25 122.6)"><tspan xml:space="preserve">  -ba</tspan><tspan class="cls-2" x="45.55" y="0">r</tspan><tspan class="cls-3" x="54.01" y="0">bersho</tspan><tspan class="cls-4" x="128.07" y="0">p</tspan><tspan x="142.99" y="0">-</tspan></text></g><text class="cls-5" transform="translate(23.72 72.72)"><tspan xml:space="preserve"> hips</tspan><tspan class="cls-6" x="82.71" y="0">t</tspan><tspan class="cls-7" x="96.38" y="0">er</tspan></text><text class="cls-8" transform="translate(65.96 142.18) rotate(26.69)">s</text><text class="cls-8" transform="translate(70.71 144.51) rotate(22.55)">i</text><text class="cls-8" transform="translate(73.82 145.88) rotate(17.34)">n</text><text class="cls-8" transform="translate(81.01 148.05) rotate(10.73)">c</text><text class="cls-8" transform="translate(86.95 149.17) rotate(4.62)">e</text><text class="cls-8" transform="matrix(1, -0.02, 0.02, 1, 93.62, 149.64)"> </text><text class="cls-8" transform="translate(96.68 149.68) rotate(-4.67)">1</text><text class="cls-8" transform="translate(103.63 149.07) rotate(-11.36)">9</text><text class="cls-8" transform="translate(110.48 147.66) rotate(-18.12)">8</text><text class="cls-8" transform="translate(117.14 145.44) rotate(-24.9)">4</text></g></g></g></svg>