<svg xmlns="http://www.w3.org/2000/svg" viewBox="0 0 127.19 149.86"><defs><style>.cls-1{font-size:55.16px;fill:#1d1d1b;font-family:BebasNeueBook, BebasNeueBook;}</style></defs><title>Ресурс 4</title><g id="Слой_2" data-name="Слой 2"><g id="Objects"><g id="_Группа_" data-name="&lt;Группа&gt;"><text class="cls-1" transform="translate(50.32 46.17)">a</text><text class="cls-1" transform="translate(52.03 136.07)">c</text><text class="cls-1" transform="translate(95.81 92.01)">b</text><text class="cls-1" transform="translate(10.27 92.01)">d</text><polygon id="_Контур_" data-name="&lt;Контур&gt;" points="114.75 22.87 119.88 28 124.68 11.68 108.36 16.48 113.49 21.61 62.34 72.76 11.19 21.61 16.32 16.48 0 11.68 4.8 28 9.94 22.87 61.08 74.02 18.89 116.22 9.84 114.64 0 124.49 10.12 126.25 11.88 136.36 21.72 126.52 20.14 117.48 62.34 75.28 104.54 117.48 102.97 126.52 112.81 136.36 114.57 126.25 124.68 124.49 114.84 114.64 105.8 116.22 63.6 74.02 114.75 22.87"/></g></g></g></svg>