<svg xmlns="http://www.w3.org/2000/svg" viewBox="0 0 172.24 172.24"><defs><style>.cls-1{font-size:12.45px;}.cls-1,.cls-3{fill:#1d1d1b;font-family:Bebas, Bebas;}.cls-2{letter-spacing:0em;}.cls-3{font-size:33.45px;}.cls-4{letter-spacing:-0.01em;}</style></defs><title>Ресурс 7</title><g id="Слой_2" data-name="Слой 2"><g id="Objects"><g id="_Группа_" data-name="&lt;Группа&gt;"><g id="_Группа_2" data-name="&lt;Группа&gt;"><text class="cls-1" transform="translate(53.74 117.86)">ba<tspan class="cls-2" x="13.08" y="0">r</tspan><tspan x="17.2" y="0">bershop</tspan></text></g><text class="cls-3" transform="translate(30.71 100.35)"><tspan xml:space="preserve"> hips</tspan><tspan class="cls-4" x="65.77" y="0">t</tspan><tspan x="76.64" y="0">er</tspan></text><path id="_Составной_контур_" data-name="&lt;Составной контур&gt;" d="M86.12,0a86.12,86.12,0,1,0,86.12,86.12A86.22,86.22,0,0,0,86.12,0ZM1.51,86.12a84.61,84.61,0,1,1,84.61,84.62A84.71,84.71,0,0,1,1.51,86.12Z"/><path id="_Составной_контур_2" data-name="&lt;Составной контур&gt;" d="M161.38,85.56A74.41,74.41,0,1,0,87,160,74.5,74.5,0,0,0,161.38,85.56Zm-147.32,0A72.91,72.91,0,1,1,87,158.46,73,73,0,0,1,14.06,85.56Z"/><path id="_Контур_" data-name="&lt;Контур&gt;" d="M102.67,162.55a1.5,1.5,0,0,0-1.16,1.79,1.53,1.53,0,0,0,1.48,1.19,1.15,1.15,0,0,0,.32,0,1.5,1.5,0,1,0-.63-2.94Z"/><path id="_Контур_2" data-name="&lt;Контур&gt;" d="M98,8.84l.23,0a1.52,1.52,0,0,0,1.49-1.28,1.5,1.5,0,0,0-1.27-1.72,1.51,1.51,0,0,0-.45,3Z"/><path id="_Контур_3" data-name="&lt;Контур&gt;" d="M28.47,32.62a1.51,1.51,0,0,0,1-2.61,1.51,1.51,0,0,0-2.08,2.18A1.52,1.52,0,0,0,28.47,32.62Z"/><path id="_Контур_4" data-name="&lt;Контур&gt;" d="M106.65,10.67a1.87,1.87,0,0,0,.41,0,1.5,1.5,0,1,0-1.46-1.9A1.52,1.52,0,0,0,106.65,10.67Z"/><path id="_Контур_5" data-name="&lt;Контур&gt;" d="M93.62,8.3h.14a1.5,1.5,0,0,0,.15-3,1.51,1.51,0,1,0-.29,3Z"/><path id="_Контур_6" data-name="&lt;Контур&gt;" d="M84.76,8h0a1.51,1.51,0,1,0-1.52-1.48A1.5,1.5,0,0,0,84.76,8Z"/><path id="_Контур_7" data-name="&lt;Контур&gt;" d="M89.2,8h.06a1.48,1.48,0,1,0-.06,0Z"/><path id="_Контур_8" data-name="&lt;Контур&gt;" d="M110.88,11.95a1.77,1.77,0,0,0,.48.08,1.5,1.5,0,0,0,1.43-1,1.52,1.52,0,0,0-1-1.91h0a1.51,1.51,0,1,0-1,2.86Z"/><path id="_Контур_9" data-name="&lt;Контур&gt;" d="M131.47,22.1a1.51,1.51,0,1,0-.86-.27A1.5,1.5,0,0,0,131.47,22.1Z"/><path id="_Контур_10" data-name="&lt;Контур&gt;" d="M126.91,19.4a1.48,1.48,0,0,0,.78.23,1.51,1.51,0,1,0-.78-.23Z"/><path id="_Контур_11" data-name="&lt;Контур&gt;" d="M135.1,24.77a1.51,1.51,0,1,0-.92-.32A1.48,1.48,0,0,0,135.1,24.77Z"/><path id="_Контур_12" data-name="&lt;Контур&gt;" d="M119.11,15.22a1.4,1.4,0,0,0,.65.15,1.51,1.51,0,1,0-1.37-2.14A1.49,1.49,0,0,0,119.11,15.22Z"/><path id="_Контур_13" data-name="&lt;Контур&gt;" d="M123.07,17.2a1.5,1.5,0,0,0,.71.18,1.47,1.47,0,0,0,1.33-.8,1.49,1.49,0,0,0-.6-2,1.51,1.51,0,1,0-1.43,2.65Z"/><path id="_Контур_14" data-name="&lt;Контур&gt;" d="M115,13.47a1.52,1.52,0,0,0,.56.11,1.49,1.49,0,1,0-.56-.11Z"/><path id="_Контур_15" data-name="&lt;Контур&gt;" d="M31.68,29.44a1.51,1.51,0,1,0-1-2.61,1.51,1.51,0,0,0,1,2.61Z"/><path id="_Контур_16" data-name="&lt;Контур&gt;" d="M38.6,23.67a1.54,1.54,0,0,0,.89-.3,1.49,1.49,0,1,0-.89.3Z"/><path id="_Контур_17" data-name="&lt;Контур&gt;" d="M42.27,21.08a1.46,1.46,0,0,0,.84-.26,1.5,1.5,0,1,0-.84.26Z"/><path id="_Контур_18" data-name="&lt;Контур&gt;" d="M46.1,18.7a1.54,1.54,0,0,0,.77-.2A1.51,1.51,0,1,0,44.8,18,1.5,1.5,0,0,0,46.1,18.7Z"/><path id="_Контур_19" data-name="&lt;Контур&gt;" d="M138.58,27.64a1.52,1.52,0,0,0,1.13-.51,1.5,1.5,0,0,0-.15-2.12h0a1.52,1.52,0,0,0-2.14.14,1.5,1.5,0,0,0,.15,2.12A1.46,1.46,0,0,0,138.58,27.64Z"/><path id="_Контур_20" data-name="&lt;Контур&gt;" d="M147,135.24v0a1.51,1.51,0,0,0,.23,2.12,1.45,1.45,0,0,0,.93.33,1.5,1.5,0,1,0-1.16-2.44Z"/><path id="_Контур_21" data-name="&lt;Контур&gt;" d="M35.06,26.45a1.57,1.57,0,0,0,1-.35,1.51,1.51,0,1,0-2.12-.2A1.49,1.49,0,0,0,35.06,26.45Z"/><path id="_Контур_22" data-name="&lt;Контур&gt;" d="M75.76,8.6H76a1.51,1.51,0,1,0-1.69-1.31A1.49,1.49,0,0,0,75.76,8.6Z"/><path id="_Контур_23" data-name="&lt;Контур&gt;" d="M80.25,8.15h.11a1.57,1.57,0,1,0-.11,0Z"/><path id="_Контур_24" data-name="&lt;Контур&gt;" d="M71.3,9.31a1.87,1.87,0,0,0,.29,0,1.51,1.51,0,0,0-.56-3,1.5,1.5,0,0,0,.27,3Z"/><path id="_Контур_25" data-name="&lt;Контур&gt;" d="M58.3,12.94a1.38,1.38,0,0,0,.53-.11,1.48,1.48,0,1,0-.53.11Z"/><path id="_Контур_26" data-name="&lt;Контур&gt;" d="M66.91,10.27a1.51,1.51,0,1,0-1.46-1.14A1.49,1.49,0,0,0,66.91,10.27Z"/><path id="_Контур_27" data-name="&lt;Контур&gt;" d="M54.13,14.63a1.46,1.46,0,0,0,.6-.14,1.51,1.51,0,0,0,.78-2,1.53,1.53,0,0,0-2-.77,1.51,1.51,0,0,0-.78,2A1.53,1.53,0,0,0,54.13,14.63Z"/><path id="_Контур_28" data-name="&lt;Контур&gt;" d="M102.35,9.63a1.13,1.13,0,0,0,.32,0,1.51,1.51,0,1,0-1.48-1.81A1.49,1.49,0,0,0,102.35,9.63Z"/><path id="_Контур_29" data-name="&lt;Контур&gt;" d="M163.08,106.92a1.51,1.51,0,1,0-.84,2.89,1.41,1.41,0,0,0,.42.06,1.48,1.48,0,0,0,1.45-1.08A1.5,1.5,0,0,0,163.08,106.92Z"/><path id="_Контур_30" data-name="&lt;Контур&gt;" d="M164.13,102.53a1.51,1.51,0,0,0-.68,2.94,1.25,1.25,0,0,0,.33,0,1.53,1.53,0,0,0,1.48-1.18A1.51,1.51,0,0,0,164.13,102.53Z"/><path id="_Контур_31" data-name="&lt;Контур&gt;" d="M165.48,93.63a1.5,1.5,0,1,0-.33,3,.58.58,0,0,0,.17,0,1.51,1.51,0,0,0,1.49-1.34A1.49,1.49,0,0,0,165.48,93.63Z"/><path id="_Контур_32" data-name="&lt;Контур&gt;" d="M164.93,98.1a1.51,1.51,0,0,0-1.75,1.22,1.53,1.53,0,0,0,1.24,1.75h.26a1.5,1.5,0,0,0,.26-3Z"/><path id="_Контур_33" data-name="&lt;Контур&gt;" d="M165.57,79.78a1.51,1.51,0,0,0,.09,3h.09a1.51,1.51,0,0,0-.18-3Z"/><path id="_Контур_34" data-name="&lt;Контур&gt;" d="M165.76,89.12a1.51,1.51,0,0,0-.17,3h.09a1.51,1.51,0,0,0,.07-3Z"/><path id="_Контур_35" data-name="&lt;Контур&gt;" d="M165.81,84.29a1.5,1.5,0,0,0-1.51,1.51.64.64,0,0,0,0,.17.58.58,0,0,0,0,.17,1.51,1.51,0,1,0,3,0,.55.55,0,0,0,0-.17.72.72,0,0,0,0-.18A1.5,1.5,0,0,0,165.81,84.29Z"/><path id="_Контур_36" data-name="&lt;Контур&gt;" d="M161.78,111.24a1.5,1.5,0,1,0-1,2.83,1.6,1.6,0,0,0,.51.09,1.5,1.5,0,0,0,.5-2.92Z"/><path id="_Контур_37" data-name="&lt;Контур&gt;" d="M149.64,131.71a1.5,1.5,0,0,0,.35,2.09,1.45,1.45,0,0,0,.87.29,1.49,1.49,0,0,0,1.22-.62,1.5,1.5,0,1,0-2.44-1.76Z"/><path id="_Контур_38" data-name="&lt;Контур&gt;" d="M156.44,123.67A1.51,1.51,0,1,0,155,126.3a1.56,1.56,0,0,0,.72.18,1.5,1.5,0,0,0,.74-2.82Z"/><path id="_Контур_39" data-name="&lt;Контур&gt;" d="M154.21,127.58a1.49,1.49,0,0,0-2.08.47,1.51,1.51,0,0,0,.45,2.08,1.58,1.58,0,0,0,.81.23,1.49,1.49,0,0,0,1.27-.69A1.51,1.51,0,0,0,154.21,127.58Z"/><path id="_Контур_40" data-name="&lt;Контур&gt;" d="M160.23,115.47a1.51,1.51,0,0,0-1.16,2.79,1.64,1.64,0,0,0,.59.12,1.49,1.49,0,0,0,1.39-.93A1.52,1.52,0,0,0,160.23,115.47Z"/><path id="_Контур_41" data-name="&lt;Контур&gt;" d="M158.45,119.63a1.51,1.51,0,0,0-1.33,2.71,1.83,1.83,0,0,0,.66.15,1.51,1.51,0,0,0,.66-2.86Z"/><path id="_Контур_42" data-name="&lt;Контур&gt;" d="M145,34a1.51,1.51,0,1,0-1-2.62A1.51,1.51,0,0,0,145,34Z"/><path id="_Контур_43" data-name="&lt;Контур&gt;" d="M152,44a1.52,1.52,0,0,0,1.27.69,1.6,1.6,0,0,0,.81-.24A1.51,1.51,0,1,0,152,44Z"/><path id="_Контур_44" data-name="&lt;Контур&gt;" d="M154.25,47.76a1.51,1.51,0,0,0,1.31.77,1.59,1.59,0,0,0,.74-.2,1.53,1.53,0,0,0,.57-2.06,1.49,1.49,0,0,0-2-.56A1.51,1.51,0,0,0,154.25,47.76Z"/><path id="_Контур_45" data-name="&lt;Контур&gt;" d="M149.48,40.31h0a1.49,1.49,0,0,0,1.22.62,1.57,1.57,0,0,0,.87-.27,1.5,1.5,0,0,0,.33-2.11,1.48,1.48,0,0,0-2.09-.33A1.5,1.5,0,0,0,149.48,40.31Z"/><path id="_Контур_46" data-name="&lt;Контур&gt;" d="M141.88,30.7a1.53,1.53,0,0,0,1.09-.45,1.51,1.51,0,0,0-2.15-2.11,1.5,1.5,0,0,0,1.07,2.56Z"/><path id="_Контур_47" data-name="&lt;Контур&gt;" d="M156.32,51.66a1.5,1.5,0,1,0,.68-2A1.52,1.52,0,0,0,156.32,51.66Z"/><path id="_Контур_48" data-name="&lt;Контур&gt;" d="M146.79,36.8v0a1.49,1.49,0,0,0,1.16.54,1.5,1.5,0,0,0,1.17-2.46,1.51,1.51,0,0,0-2.12-.21A1.49,1.49,0,0,0,146.79,36.8Z"/><path id="_Контур_49" data-name="&lt;Контур&gt;" d="M159.75,59.79a1.53,1.53,0,0,0,1.43,1,1.46,1.46,0,0,0,.5-.09,1.5,1.5,0,0,0,.9-1.93,1.48,1.48,0,0,0-1.91-.9A1.51,1.51,0,0,0,159.75,59.79Z"/><path id="_Контур_50" data-name="&lt;Контур&gt;" d="M163.14,72.6a1.5,1.5,0,0,0,1.48,1.25,1.36,1.36,0,0,0,.26,0,1.51,1.51,0,0,0,1.24-1.75,1.53,1.53,0,0,0-1.75-1.22A1.51,1.51,0,0,0,163.14,72.6Z"/><path id="_Контур_51" data-name="&lt;Контур&gt;" d="M158.15,55.68a1.5,1.5,0,0,0,1.39.92,1.63,1.63,0,0,0,.59-.12,1.51,1.51,0,1,0-2-.8Z"/><path id="_Контур_52" data-name="&lt;Контур&gt;" d="M163.38,66.45a1.5,1.5,0,0,0,.33,3,1.32,1.32,0,0,0,.35,0,1.51,1.51,0,0,0-.68-2.94Z"/><path id="_Контур_53" data-name="&lt;Контур&gt;" d="M161.12,64a1.52,1.52,0,0,0,1.45,1.07A1.37,1.37,0,0,0,163,65a1.5,1.5,0,0,0,1-1.87,1.51,1.51,0,1,0-2.89.86Z"/><path id="_Контур_54" data-name="&lt;Контур&gt;" d="M163.77,77a1.51,1.51,0,0,0,1.49,1.34.72.72,0,0,0,.18,0,1.51,1.51,0,0,0,1.33-1.67,1.51,1.51,0,0,0-3,.35Z"/><path id="_Контур_55" data-name="&lt;Контур&gt;" d="M50.06,16.54a1.53,1.53,0,0,0,.68-.15,1.53,1.53,0,1,0-.68.15Z"/><path id="_Контур_56" data-name="&lt;Контур&gt;" d="M80.67,164.12a1.5,1.5,0,1,0-.2,3h0l.11,0a1.53,1.53,0,0,0,1.51-1.42A1.5,1.5,0,0,0,80.67,164.12Z"/><path id="_Контур_57" data-name="&lt;Контур&gt;" d="M63.32,160.92a1.5,1.5,0,1,0-.87,2.88,1.41,1.41,0,0,0,.44.08,1.51,1.51,0,0,0,.44-3Z"/><path id="_Контур_58" data-name="&lt;Контур&gt;" d="M59.12,159.51a1.51,1.51,0,0,0-1,2.83,1.53,1.53,0,0,0,.51.09,1.51,1.51,0,0,0,.53-2.92Z"/><path id="_Контур_59" data-name="&lt;Контур&gt;" d="M76.28,163.68a1.51,1.51,0,1,0-.38,3l.2,0a1.51,1.51,0,0,0,.18-3Z"/><path id="_Контур_60" data-name="&lt;Контур&gt;" d="M55,157.87a1.5,1.5,0,1,0-1.2,2.76,1.46,1.46,0,0,0,.6.14,1.51,1.51,0,0,0,.6-2.89Z"/><path id="_Контур_61" data-name="&lt;Контур&gt;" d="M71.91,163a1.5,1.5,0,1,0-.54,3,1.69,1.69,0,0,0,.27,0,1.5,1.5,0,0,0,.27-3Z"/><path id="_Контур_62" data-name="&lt;Контур&gt;" d="M67.58,162.08a1.51,1.51,0,0,0-.71,2.94,1.46,1.46,0,0,0,.35,0,1.51,1.51,0,0,0,.36-3Z"/><path id="_Контур_63" data-name="&lt;Контур&gt;" d="M34.09,146.51a1.5,1.5,0,0,0,.2,2.11,1.46,1.46,0,0,0,1,.35,1.49,1.49,0,0,0,1.16-.54,1.5,1.5,0,1,0-2.32-1.91Z"/><path id="_Контур_64" data-name="&lt;Контур&gt;" d="M51,156a1.51,1.51,0,0,0-1.36,2.7,1.53,1.53,0,0,0,.68.15A1.5,1.5,0,0,0,51,156Z"/><path id="_Контур_65" data-name="&lt;Контур&gt;" d="M37.59,149.34A1.51,1.51,0,0,0,40,151.15a1.51,1.51,0,0,0-2.43-1.81Z"/><path id="_Контур_66" data-name="&lt;Контур&gt;" d="M32.89,143.39a1.51,1.51,0,1,0,.08,2.12,1.51,1.51,0,0,0-.08-2.14Z"/><path id="_Контур_67" data-name="&lt;Контур&gt;" d="M47.09,153.87v0a1.48,1.48,0,0,0-2,.54,1.51,1.51,0,1,0,2-.56Z"/><path id="_Контур_68" data-name="&lt;Контур&gt;" d="M43.33,151.57a1.49,1.49,0,0,0-2.08.42,1.51,1.51,0,1,0,2.08-.42Z"/><path id="_Контур_69" data-name="&lt;Контур&gt;" d="M98.32,163.35a1.51,1.51,0,0,0,.24,3,1.11,1.11,0,0,0,.23,0,1.51,1.51,0,1,0-.47-3Z"/><path id="_Контур_70" data-name="&lt;Контур&gt;" d="M127.13,152.68a1.51,1.51,0,0,0-.48,2.08,1.49,1.49,0,0,0,1.28.71,1.55,1.55,0,0,0,.8-.21v0a1.51,1.51,0,0,0-1.6-2.56Z"/><path id="_Контур_71" data-name="&lt;Контур&gt;" d="M123.32,154.9a1.52,1.52,0,0,0-.62,2,1.54,1.54,0,0,0,1.33.78,1.51,1.51,0,0,0,.72-.18,1.48,1.48,0,0,0,.6-2A1.5,1.5,0,0,0,123.32,154.9Z"/><path id="_Контур_72" data-name="&lt;Контур&gt;" d="M115.34,158.66a1.49,1.49,0,0,0-.84,2,1.51,1.51,0,0,0,1.4.95,1.51,1.51,0,1,0-.56-2.91Z"/><path id="_Контур_73" data-name="&lt;Контур&gt;" d="M119.38,156.9a1.5,1.5,0,0,0,.65,2.86,1.39,1.39,0,0,0,.63-.15,1.5,1.5,0,1,0-1.28-2.71Z"/><path id="_Контур_74" data-name="&lt;Контур&gt;" d="M134.38,147.64a1.49,1.49,0,0,0-.24,2.11,1.46,1.46,0,0,0,1.17.57,1.51,1.51,0,1,0-.93-2.68Z"/><path id="_Контур_75" data-name="&lt;Контур&gt;" d="M130.84,150.26a1.51,1.51,0,0,0,.86,2.74,1.56,1.56,0,0,0,.86-.27,1.5,1.5,0,0,0-1.72-2.47Z"/><path id="_Контур_76" data-name="&lt;Контур&gt;" d="M85.1,164.3h0a1.5,1.5,0,0,0-1.52,1.48,1.52,1.52,0,0,0,1.49,1.54h0a1.51,1.51,0,0,0,1.51-1.49A1.49,1.49,0,0,0,85.1,164.3Z"/><path id="_Контур_77" data-name="&lt;Контур&gt;" d="M93.93,163.92a1.5,1.5,0,0,0,.15,3h.15a1.51,1.51,0,0,0,1.34-1.66A1.48,1.48,0,0,0,93.93,163.92Z"/><path id="_Контур_78" data-name="&lt;Контур&gt;" d="M89.52,164.22a1.51,1.51,0,0,0,.06,3h.08a1.49,1.49,0,0,0,1.43-1.57A1.51,1.51,0,0,0,89.52,164.22Z"/><path id="_Контур_79" data-name="&lt;Контур&gt;" d="M27.6,140.24a1.5,1.5,0,0,0,0,2.12,1.44,1.44,0,0,0,1.08.47,1.46,1.46,0,0,0,1-.42,1.51,1.51,0,1,0-2.09-2.17Z"/><path id="_Контур_80" data-name="&lt;Контур&gt;" d="M111.18,160.2a1.5,1.5,0,0,0,.48,2.92,1.29,1.29,0,0,0,.48-.08,1.5,1.5,0,1,0-1-2.85Z"/><path id="_Контур_81" data-name="&lt;Контур&gt;" d="M107,161.5a1.5,1.5,0,0,0,.39,3,1.87,1.87,0,0,0,.41,0,1.52,1.52,0,0,0,1.05-1.85A1.5,1.5,0,0,0,107,161.5Z"/><path id="_Контур_82" data-name="&lt;Контур&gt;" d="M24,133.57a1.51,1.51,0,0,0-2.4,1.84,1.53,1.53,0,0,0,1.19.59,1.48,1.48,0,0,0,.92-.32A1.51,1.51,0,0,0,24,133.57Z"/><path id="_Контур_83" data-name="&lt;Контур&gt;" d="M8.57,67.67a1.52,1.52,0,0,0,1.84-1.08h0a1.5,1.5,0,1,0-1.82,1.08Z"/><path id="_Контур_84" data-name="&lt;Контур&gt;" d="M6.42,85.54h0a1.51,1.51,0,0,0,0-3A1.49,1.49,0,0,0,5,84,1.51,1.51,0,0,0,6.42,85.54Z"/><path id="_Контур_85" data-name="&lt;Контур&gt;" d="M7.66,72.09l.29,0a1.51,1.51,0,0,0,.3-3,1.51,1.51,0,0,0-.59,3Z"/><path id="_Контур_86" data-name="&lt;Контур&gt;" d="M7,76.55H7.2a1.51,1.51,0,1,0-1.49-1.72A1.5,1.5,0,0,0,7,76.55Z"/><path id="_Контур_87" data-name="&lt;Контур&gt;" d="M11.15,59a1.68,1.68,0,0,0,.53.09,1.49,1.49,0,1,0-.53-.09Z"/><path id="_Контур_88" data-name="&lt;Контур&gt;" d="M6.59,81h.12a1.51,1.51,0,0,0,.12-3,1.51,1.51,0,1,0-.24,3Z"/><path id="_Контур_89" data-name="&lt;Контур&gt;" d="M9.73,63.32a1.54,1.54,0,0,0,.45.06,1.48,1.48,0,1,0-.45-.06Z"/><path id="_Контур_90" data-name="&lt;Контур&gt;" d="M19.16,42.87a1.42,1.42,0,0,0,.83.26,1.49,1.49,0,0,0,.84-2.74,1.5,1.5,0,1,0-1.67,2.49Z"/><path id="_Контур_91" data-name="&lt;Контур&gt;" d="M22.63,39.47a1.52,1.52,0,0,0,1.2-.6h0a1.5,1.5,0,0,0-.29-2.11,1.51,1.51,0,0,0-1.82,2.41A1.63,1.63,0,0,0,22.63,39.47Z"/><path id="_Контур_92" data-name="&lt;Контур&gt;" d="M12.81,54.82a1.47,1.47,0,0,0,.62.14,1.51,1.51,0,0,0,1.37-.89,1.53,1.53,0,0,0-.75-2,1.51,1.51,0,0,0-1.24,2.76Z"/><path id="_Контур_93" data-name="&lt;Контур&gt;" d="M16.81,46.73a1.45,1.45,0,0,0,.77.21,1.51,1.51,0,0,0,.77-2.8,1.51,1.51,0,0,0-1.54,2.59Z"/><path id="_Контур_94" data-name="&lt;Контур&gt;" d="M14.69,50.72a1.67,1.67,0,0,0,.69.17,1.49,1.49,0,1,0-.69-.17Z"/><path id="_Контур_95" data-name="&lt;Контур&gt;" d="M9.4,107.8a1.53,1.53,0,1,0-.38,0A1.65,1.65,0,0,0,9.4,107.8Z"/><path id="_Контур_96" data-name="&lt;Контур&gt;" d="M13.2,114.37a1.51,1.51,0,1,0-1.4,2,1.4,1.4,0,0,0,.54-.11A1.48,1.48,0,0,0,13.2,114.37Z"/><path id="_Контур_97" data-name="&lt;Контур&gt;" d="M19,126.26a1.5,1.5,0,0,0-2.58,1.55,1.51,1.51,0,0,0,1.3.72,1.44,1.44,0,0,0,.77-.21A1.5,1.5,0,0,0,19,126.26Z"/><path id="_Контур_98" data-name="&lt;Контур&gt;" d="M14.92,118.44a1.51,1.51,0,0,0-2-.74,1.49,1.49,0,0,0-.74,2,1.51,1.51,0,0,0,1.37.89,1.47,1.47,0,0,0,.62-.14A1.51,1.51,0,0,0,14.92,118.44Z"/><path id="_Контур_99" data-name="&lt;Контур&gt;" d="M16.86,122.4a1.53,1.53,0,0,0-2-.63,1.51,1.51,0,0,0,.69,2.85,1.68,1.68,0,0,0,.71-.17A1.55,1.55,0,0,0,16.86,122.4Z"/><path id="_Контур_100" data-name="&lt;Контур&gt;" d="M21.39,130a1.51,1.51,0,0,0-2.49,1.7,1.48,1.48,0,0,0,1.24.65,1.4,1.4,0,0,0,.86-.26A1.52,1.52,0,0,0,21.39,130Z"/><path id="_Контур_101" data-name="&lt;Контур&gt;" d="M25.46,36a1.52,1.52,0,0,0,1.14-.53,1.51,1.51,0,1,0-2.12.17A1.51,1.51,0,0,0,25.46,36Z"/><path id="_Контур_102" data-name="&lt;Контур&gt;" d="M7.46,99a1.5,1.5,0,1,0-.21,0Z"/><path id="_Контур_103" data-name="&lt;Контур&gt;" d="M6.47,90h0A1.51,1.51,0,1,0,5,88.58,1.5,1.5,0,0,0,6.51,90Z"/><path id="_Контур_104" data-name="&lt;Контур&gt;" d="M6.86,94.53a1.5,1.5,0,1,0-1.63-1.37,1.52,1.52,0,0,0,1.51,1.39Z"/><path id="_Контур_105" data-name="&lt;Контур&gt;" d="M11.72,110.21a1.5,1.5,0,1,0-1.43,2,1.66,1.66,0,0,0,.47-.06A1.52,1.52,0,0,0,11.72,110.21Z"/><path id="_Контур_106" data-name="&lt;Контур&gt;" d="M24.65,136.83a1.52,1.52,0,0,0-.17,2.14,1.5,1.5,0,0,0,1.14.51,1.44,1.44,0,0,0,1-.36,1.51,1.51,0,1,0-2-2.29Z"/><path id="_Контур_107" data-name="&lt;Контур&gt;" d="M8.3,103.44a1.51,1.51,0,0,0,1.18-1.78,1.49,1.49,0,0,0-1.76-1.18,1.51,1.51,0,0,0-1.19,1.76A1.53,1.53,0,0,0,8,103.47Z"/><path id="_Контур_108" data-name="&lt;Контур&gt;" d="M62.57,11.48a1.38,1.38,0,0,0,.44-.06,1.53,1.53,0,1,0-.44.06Z"/><path id="_Контур_109" data-name="&lt;Контур&gt;" d="M141,141.78a1.52,1.52,0,0,0,0,2.14,1.47,1.47,0,0,0,1.07.45,1.51,1.51,0,1,0-1.07-2.59Z"/><path id="_Контур_110" data-name="&lt;Контур&gt;" d="M146.21,138.48a1.51,1.51,0,0,0-2,2.24,1.52,1.52,0,0,0,1,.39,1.5,1.5,0,0,0,1.12-.5A1.52,1.52,0,0,0,146.21,138.48Z"/><path id="_Контур_111" data-name="&lt;Контур&gt;" d="M137.79,144.8a1.49,1.49,0,0,0-.14,2.12,1.52,1.52,0,0,0,1.13.51,1.46,1.46,0,0,0,1-.38,1.52,1.52,0,0,0,.14-2.12A1.49,1.49,0,0,0,137.79,144.8Z"/><polygon id="_Контур_112" data-name="&lt;Контур&gt;" points="111.55 27.06 108.06 32.01 58.5 32.01 58.5 27.38 47.87 33.52 58.5 39.66 58.5 35.03 108.06 35.03 111.55 39.98 122.25 39.98 117.71 33.52 122.25 27.06 111.55 27.06"/><polygon id="_Контур_113" data-name="&lt;Контур&gt;" points="111.62 53.14 62.06 53.14 58.58 48.19 47.87 48.19 52.42 54.65 47.87 61.11 58.58 61.11 62.06 56.16 111.62 56.16 111.62 60.79 122.25 54.65 111.62 48.51 111.62 53.14"/><path id="_Контур_114" data-name="&lt;Контур&gt;" d="M96.31,134.17c-3.83-2.81-6.82-2.75-8.74-1.39-1.93-1.36-4.91-1.42-8.74,1.39-11.58,8.49-21.09,1.15-21.09,1.15,5.5,16.27,22.34,14.62,29.84,7.82,7.49,6.8,24.33,8.45,29.84-7.82C117.4,135.32,107.89,142.66,96.31,134.17Z"/></g></g></g></svg>