<svg xmlns="http://www.w3.org/2000/svg" viewBox="0 0 179.71 189.34"><defs><style>.cls-1{font-size:30.35px;}.cls-1,.cls-2,.cls-4{fill:#1d1d1b;font-family:Bebas, Bebas;}.cls-2{font-size:13.49px;}.cls-3{letter-spacing:-0.01em;}.cls-4{font-size:16.4px;}.cls-5{fill:none;}</style></defs><title>Ресурс 6</title><g id="Слой_2" data-name="Слой 2"><g id="Objects"><g id="_Группа_" data-name="&lt;Группа&gt;"><text class="cls-1" transform="translate(45.58 108.78)">studio</text><text class="cls-2" transform="translate(59.88 73.14)">sin<tspan class="cls-3" x="15.98" y="0">c</tspan><tspan x="21.94" y="0">e 1980</tspan></text><text class="cls-2" transform="translate(63.12 129.87)">desi<tspan class="cls-3" x="22.86" y="0">g</tspan><tspan x="30.32" y="0">ner</tspan></text><text class="cls-4" transform="matrix(0.72, -0.69, 0.69, 0.72, 32.11, 38.82)">d</text><text class="cls-4" transform="translate(38.59 32.61) rotate(-37.73)">e</text><text class="cls-4" transform="translate(44.89 27.76) rotate(-32.58)">s</text><text class="cls-4" transform="translate(50.25 24.38) rotate(-28.92)">i</text><text class="cls-4" transform="translate(53.36 22.53) rotate(-24.33)">g</text><text class="cls-4" transform="matrix(0.95, -0.31, 0.31, 0.95, 61.34, 18.9)">n</text><text class="cls-4" transform="translate(69.81 16.27) rotate(-13.47)"> </text><text class="cls-4" transform="matrix(0.98, -0.18, 0.18, 0.98, 73.04, 15.46)">t</text><text class="cls-4" transform="translate(78.2 14.52) rotate(-6.5)">r</text><text class="cls-4" transform="matrix(1, -0.03, 0.03, 1, 83.15, 13.88)">e</text><text class="cls-4" transform="translate(91.08 13.58) rotate(4.15)">n</text><text class="cls-4" transform="translate(99.84 14.2) rotate(10.6)">d</text><text class="cls-4" transform="translate(108.67 15.9) rotate(16.19)">s</text><text class="cls-4" transform="translate(114.74 17.71) rotate(19.73)"> </text><text class="cls-4" transform="translate(117.9 18.84) rotate(22.2)"> </text><text class="cls-4" transform="translate(120.96 19.98) rotate(26.4)">2</text><text class="cls-4" transform="translate(128.25 23.59) rotate(32.34)">0</text><text class="cls-4" transform="translate(135.14 27.94) rotate(38.27)">1</text><text class="cls-4" transform="matrix(0.72, 0.7, -0.7, 0.72, 141.54, 32.97)">5</text><g id="_Группа_2" data-name="&lt;Группа&gt;"><text class="cls-4" transform="translate(28.7 161.31) rotate(41.16)">t</text><text class="cls-4" transform="matrix(0.79, 0.61, -0.61, 0.79, 33.13, 165.16)">r</text><text class="cls-4" transform="translate(37.77 168.75) rotate(32.92)">a</text><text class="cls-4" transform="matrix(0.89, 0.45, -0.45, 0.89, 45.04, 173.45)">d</text><text class="cls-4" transform="matrix(0.92, 0.38, -0.38, 0.92, 53.83, 177.78)">i</text><text class="cls-4" transform="translate(57.76 179.41) rotate(19.18)">t</text><text class="cls-4" transform="translate(63.28 181.3) rotate(15.94)">i</text><text class="cls-4" transform="translate(67.47 182.58) rotate(11.47)">o</text><text class="cls-4" transform="translate(77.09 184.49) rotate(5.19)">n</text><text class="cls-4" transform="translate(86.92 185.33) rotate(-0.93)">a</text><text class="cls-4" transform="translate(95.27 185.13) rotate(-4.62)">l</text><text class="cls-4" transform="translate(99.43 184.78) rotate(-7.15)"> </text><text class="cls-4" transform="translate(103.41 184.36) rotate(-11.34)">fi</text><text class="cls-4" transform="translate(112.6 182.49) rotate(-17.52)">n</text><text class="cls-4" transform="matrix(0.92, -0.4, 0.4, 0.92, 121.97, 179.46)">e</text><text class="cls-4" transform="translate(129.92 175.89) rotate(-27.62)"> </text><text class="cls-4" transform="translate(133.47 174.1) rotate(-31.57)">a</text><text class="cls-4" transform="translate(140.66 169.59) rotate(-36.17)">r</text><text class="cls-4" transform="matrix(0.76, -0.64, 0.64, 0.76, 145.69, 165.88)">t</text></g><path id="_Составной_контур_" data-name="&lt;Составной контур&gt;" class="cls-5" d="M89.86,31.13a61.41,61.41,0,1,0,61.41,61.41A61.48,61.48,0,0,0,89.86,31.13Zm56.63,61.4a1.37,1.37,0,0,1-1.38,1.37,1.36,1.36,0,1,1,1.38-1.37ZM145.11,91H145a1.34,1.34,0,1,1,.07,0ZM146,85.4a1.37,1.37,0,0,1-1.19,1.53h-.16A1.37,1.37,0,1,1,146,85.4Zm-.68-4.14a1.37,1.37,0,0,1-1.07,1.61l-.27,0a1.37,1.37,0,0,1-.27-2.71A1.36,1.36,0,0,1,145.35,81.26Zm-1-4.09a1.37,1.37,0,0,1-.94,1.7,1.72,1.72,0,0,1-.37.05,1.36,1.36,0,0,1-1.31-1,1.37,1.37,0,1,1,2.62-.75Zm-1.29-4a1.36,1.36,0,0,1-.82,1.75,1.39,1.39,0,0,1-.46.08,1.37,1.37,0,1,1,1.28-1.83ZM141.5,69.3a1.35,1.35,0,0,1-.68,1.8,1.33,1.33,0,0,1-.56.12,1.37,1.37,0,0,1-.56-2.61A1.35,1.35,0,0,1,141.5,69.3Zm-1.86-3.76a1.37,1.37,0,0,1-.55,1.85,1.46,1.46,0,0,1-.66.16,1.38,1.38,0,0,1-1.2-.71,1.37,1.37,0,0,1,2.41-1.3Zm-2.15-3.62h0a1.36,1.36,0,0,1-.41,1.89,1.41,1.41,0,0,1-.74.2,1.37,1.37,0,1,1,1.15-2.11Zm-2.41-3.43A1.37,1.37,0,0,1,134,60.67a1.37,1.37,0,1,1,1.08-2.19Zm-4.57-3.39a1.36,1.36,0,1,1,1.79,2.05,1.32,1.32,0,0,1-.89.34,1.36,1.36,0,0,1-.9-2.39Zm-2.9-2.91a1.38,1.38,0,0,1,1.94,0,1.36,1.36,0,0,1,0,1.93,1.39,1.39,0,0,1-1,.41,1.34,1.34,0,0,1-1-.4A1.36,1.36,0,0,1,127.62,52.18Zm-3.09-2.69a1.37,1.37,0,1,1,.15,1.93A1.37,1.37,0,0,1,124.53,49.49ZM121.25,47a1.36,1.36,0,1,1,1.09,2.17,1.31,1.31,0,0,1-.79-.26A1.36,1.36,0,0,1,121.25,47ZM53.1,49.46A1.37,1.37,0,1,1,54,51.87a1.33,1.33,0,0,1-1-.48A1.36,1.36,0,0,1,53.1,49.46ZM50,52.31a1.36,1.36,0,0,1,1.91,1.94,1.37,1.37,0,0,1-1.93,0A1.37,1.37,0,0,1,50,52.31Zm-2.88,3.08a1.37,1.37,0,1,1,2.07,1.79,1.34,1.34,0,0,1-1,.47,1.36,1.36,0,0,1-1-2.26Zm-2.64,3.27a1.36,1.36,0,0,1,2.19,1.63,1.32,1.32,0,0,1-1.09.56,1.4,1.4,0,0,1-.82-.27A1.37,1.37,0,0,1,44.49,58.65Zm-2.39,3.44a1.37,1.37,0,1,1,1.16,2.11,1.36,1.36,0,0,1-1.16-2.11ZM40,65.71a1.38,1.38,0,0,1,1.86-.55,1.37,1.37,0,1,1-1.84.55Zm-1.85,3.77a1.36,1.36,0,0,1,1.8-.68,1.36,1.36,0,0,1-.56,2.61,1.57,1.57,0,0,1-.55-.11A1.37,1.37,0,0,1,38.12,69.49ZM36.54,73.4a1.37,1.37,0,1,1,1.28,1.83,1.45,1.45,0,0,1-.46-.08A1.36,1.36,0,0,1,36.54,73.4Zm-1.27,4a1.37,1.37,0,0,1,2.64.72,1.35,1.35,0,0,1-1.31,1,1.69,1.69,0,0,1-.37,0A1.37,1.37,0,0,1,35.27,77.4Zm.64,3a1.37,1.37,0,0,1-.27,2.71.84.84,0,0,1-.26,0,1.37,1.37,0,1,1,.53-2.68Zm-.75,4A1.37,1.37,0,0,1,35,87.16h-.16a1.36,1.36,0,0,1,.33-2.71Zm-.44,4.07a1.37,1.37,0,0,1-.07,2.73h-.07a1.37,1.37,0,1,1,.14-2.73Zm-.15,4.1A1.37,1.37,0,0,1,36,93.94a1.39,1.39,0,0,1-1.34,1.41h0A1.37,1.37,0,0,1,33.25,94,1.35,1.35,0,0,1,34.58,92.62Zm-1.07,5.59a1.37,1.37,0,0,1,1.22-1.5A1.37,1.37,0,0,1,35,99.44h-.14A1.36,1.36,0,0,1,33.51,98.21Zm.57,4.16a1.34,1.34,0,0,1,1.11-1.57,1.36,1.36,0,0,1,1.59,1.11,1.38,1.38,0,0,1-1.12,1.59h-.23A1.35,1.35,0,0,1,34.08,102.36Zm.88,4.11a1.37,1.37,0,1,1,1.65,1,1.36,1.36,0,0,1-1.65-1Zm1.17,4a1.37,1.37,0,1,1,1.74.86,1.61,1.61,0,0,1-.44.07A1.38,1.38,0,0,1,36.13,110.51Zm1.48,3.92a1.37,1.37,0,1,1,1.79.74,1.4,1.4,0,0,1-.52.1A1.38,1.38,0,0,1,37.61,114.43Zm3,4.55a1.34,1.34,0,0,1-1.22-.75A1.36,1.36,0,0,1,40,116.4a1.38,1.38,0,0,1,1.84.6,1.37,1.37,0,0,1-.6,1.83A1.42,1.42,0,0,1,40.6,119Zm2,3.58a1.37,1.37,0,0,1-.71-2.54,1.37,1.37,0,0,1,1.42,2.34A1.41,1.41,0,0,1,42.6,122.57ZM44.85,126a1.36,1.36,0,0,1-1.11-.57,1.35,1.35,0,1,1,1.11.57Zm3.38,2.92a1.36,1.36,0,1,1-1.75-2.09,1.36,1.36,0,1,1,1.75,2.09Zm2.8,3a1.34,1.34,0,0,1-.94.4,1.4,1.4,0,0,1-1-.42,1.37,1.37,0,1,1,1.93,0Zm3,2.77a1.4,1.4,0,0,1-1,.47,1.32,1.32,0,0,1-.9-.36,1.37,1.37,0,0,1-.12-1.93,1.37,1.37,0,0,1,2.05,1.82Zm3.21,2.54a1.36,1.36,0,0,1-1.91.25,1.36,1.36,0,1,1,1.91-.25ZM57.2,49.33a1.36,1.36,0,1,1,.81-.26A1.37,1.37,0,0,1,57.2,49.33Zm3.49,90.18a1.37,1.37,0,0,1-1.15.62,1.29,1.29,0,0,1-.75-.23,1.37,1.37,0,0,1,1.5-2.28A1.38,1.38,0,0,1,60.68,139.5ZM60.59,47a1.36,1.36,0,1,1,.72-.2A1.42,1.42,0,0,1,60.59,47Zm3.65,94.51a1.35,1.35,0,0,1-1.19.7,1.48,1.48,0,0,1-.67-.16h0a1.37,1.37,0,1,1,1.85-.53Zm.53-96.71a1.39,1.39,0,0,1-1.84-.57,1.37,1.37,0,1,1,1.84.57Zm3.17,98.47a1.36,1.36,0,0,1-1.24.79,1.34,1.34,0,0,1-.56-.12h0a1.36,1.36,0,0,1-.66-1.82,1.36,1.36,0,0,1,2.47,1.15Zm.42-100.2a1.48,1.48,0,0,1-.53.11,1.37,1.37,0,0,1-.55-2.62,1.36,1.36,0,0,1,1.79.71A1.37,1.37,0,0,1,68.37,43.11Zm3.4,101.69a1.37,1.37,0,0,1-1.29.89,1.53,1.53,0,0,1-.48-.08h0A1.37,1.37,0,1,1,71,143,1.38,1.38,0,0,1,71.77,144.79Zm.31-103.15a1.26,1.26,0,0,1-.45.08,1.37,1.37,0,0,1-.45-2.67,1.37,1.37,0,1,1,.9,2.58ZM75.69,146a1.37,1.37,0,0,1-1.31,1,1.23,1.23,0,0,1-.38-.05,1.37,1.37,0,1,1,1.7-.93Zm.22-105.51a1.67,1.67,0,0,1-.36,0,1.35,1.35,0,1,1,.36,0ZM79.7,146.88A1.37,1.37,0,0,1,78.36,148a1,1,0,0,1-.29,0,1.36,1.36,0,1,1,.57-2.67A1.37,1.37,0,0,1,79.7,146.88Zm.11-107.3a.84.84,0,0,1-.26,0,1.36,1.36,0,0,1-.25-2.71,1.36,1.36,0,1,1,.51,2.68Zm2.58,109.1h-.18a1.37,1.37,0,0,1,.37-2.72h0a1.37,1.37,0,0,1-.19,2.72ZM83.76,39h-.15a1.34,1.34,0,0,1-1.35-1.2,1.36,1.36,0,1,1,1.5,1.2Zm2.72,110.07H86.4a1.36,1.36,0,1,1,.16-2.72,1.36,1.36,0,0,1-.08,2.72ZM87.75,38.69h-.07a1.36,1.36,0,0,1-1.35-1.31,1.37,1.37,0,1,1,1.42,1.31Zm2.84,110.48h0a1.37,1.37,0,0,1,0-2.73,1.37,1.37,0,0,1,0,2.73ZM91.8,38.68h-.05a1.38,1.38,0,1,1,.05,0Zm3,110.28h-.12A1.37,1.37,0,1,1,96,147.47,1.4,1.4,0,0,1,94.79,149ZM95.88,39h-.15A1.37,1.37,0,1,1,96,36.24h0A1.37,1.37,0,0,1,95.88,39Zm3.06,109.46h-.22a1.37,1.37,0,0,1-.22-2.72h0a1.37,1.37,0,0,1,.42,2.71Zm1-108.88-.25,0A1.36,1.36,0,0,1,98.59,38a1.34,1.34,0,0,1,1.59-1.09,1.36,1.36,0,0,1-.25,2.71Zm3.15,108.06-.33,0a1.37,1.37,0,1,1,1.34-1.68A1.39,1.39,0,0,1,103.07,147.62Zm2.19-108.18a1.39,1.39,0,0,1-1.33,1,1.46,1.46,0,0,1-.34,0,1.37,1.37,0,0,1-1-1.67,1.37,1.37,0,0,1,2.65.7Zm1.86,107a1.54,1.54,0,0,1-.42.07,1.37,1.37,0,1,1,.42-.07Zm.74-104.84a1.72,1.72,0,0,1-.45-.07,1.37,1.37,0,0,1,.89-2.58,1.36,1.36,0,0,1-.44,2.65Zm3.21,103.42a1.39,1.39,0,0,1-1.79-.77,1.37,1.37,0,1,1,1.79.77Zm.62-101.95a1.3,1.3,0,0,1-.55-.11,1.36,1.36,0,1,1,1.8-.71A1.38,1.38,0,0,1,111.68,43.12Zm3.21,100.22a1.33,1.33,0,0,1-.6.14,1.36,1.36,0,1,1,.6-.14Zm.49-98.46a1.26,1.26,0,0,1-.63-.15,1.38,1.38,0,1,1,.63.15Zm3.2,96.46a1.45,1.45,0,0,1-.7.19,1.37,1.37,0,0,1-1.18-.68,1.36,1.36,0,0,1,2.35-1.38A1.37,1.37,0,0,1,118.59,141.35Zm.36-94.43a1.34,1.34,0,0,1-.71-.2,1.36,1.36,0,1,1,.71.2Zm3.19,92.16a1.42,1.42,0,0,1-.79.25,1.37,1.37,0,1,1,.79-.25Zm3.35-2.51a1.36,1.36,0,0,1-1.91-.2,1.37,1.37,0,1,1,1.91.2Zm3.17-2.76h0a1.33,1.33,0,0,1-.93.37,1.37,1.37,0,0,1-1-.44,1.35,1.35,0,0,1,.07-1.93h0a1.37,1.37,0,0,1,1.89,2Zm2.94-3a1.31,1.31,0,0,1-1,.45,1.37,1.37,0,1,1,1-.45Zm2.73-3.2a1.39,1.39,0,0,1-1.93.23,1.37,1.37,0,0,1-.22-1.93,1.35,1.35,0,0,1,1.91-.22A1.37,1.37,0,0,1,134.32,127.61Zm2.47-3.39a1.35,1.35,0,0,1-1.13.6,1.33,1.33,0,0,1-.77-.23,1.37,1.37,0,0,1-.37-1.9h0a1.35,1.35,0,0,1,1.89-.37A1.37,1.37,0,0,1,136.8,124.22Zm2.23-3.57a1.39,1.39,0,0,1-1.87.51,1.37,1.37,0,1,1,1.87-.51Zm2-3.72a1.4,1.4,0,0,1-1.24.78,1.53,1.53,0,0,1-.59-.14,1.36,1.36,0,0,1-.64-1.82,1.37,1.37,0,1,1,2.47,1.18Zm1.67-3.87a1.38,1.38,0,0,1-1.28.88,1.26,1.26,0,0,1-.49-.1,1.37,1.37,0,1,1,1.78-.78Zm1.38-4a1.39,1.39,0,0,1-1.31,1,1.25,1.25,0,0,1-.4-.07,1.36,1.36,0,1,1,1.71-.9Zm1.07-4.06a1.36,1.36,0,0,1-1.33,1.07,1.14,1.14,0,0,1-.3,0,1.37,1.37,0,1,1,1.63-1Zm-.57-3h-.2a1.37,1.37,0,1,1,1.56-1.15A1.39,1.39,0,0,1,144.52,102.08ZM145,98h-.11a1.42,1.42,0,1,1,.11,0Z"/><path id="_Составной_контур_2" data-name="&lt;Составной контур&gt;" d="M154,92.54a64.14,64.14,0,1,0-64.14,64.14A64.22,64.22,0,0,0,154,92.54ZM89.86,154a61.41,61.41,0,1,1,61.41-61.41A61.48,61.48,0,0,1,89.86,154Z"/><path id="_Контур_" data-name="&lt;Контур&gt;" d="M90.55,146.43a1.37,1.37,0,0,0,0,2.73h0a1.37,1.37,0,0,0,0-2.73Z"/><path id="_Контур_2" data-name="&lt;Контур&gt;" d="M87.64,36a1.37,1.37,0,0,0-1.31,1.42,1.36,1.36,0,0,0,1.35,1.31h.07A1.37,1.37,0,0,0,87.64,36Z"/><path id="_Контур_3" data-name="&lt;Контур&gt;" d="M82.58,146h0a1.37,1.37,0,0,0-.37,2.72h.18a1.37,1.37,0,0,0,.19-2.72Z"/><path id="_Контур_4" data-name="&lt;Контур&gt;" d="M83.46,36.27a1.36,1.36,0,0,0-1.2,1.52A1.34,1.34,0,0,0,83.61,39h.15a1.37,1.37,0,0,0-.3-2.72Z"/><path id="_Контур_5" data-name="&lt;Контур&gt;" d="M91.84,35.94a1.37,1.37,0,0,0-.09,2.73h.05a1.35,1.35,0,0,0,1.35-1.31A1.36,1.36,0,0,0,91.84,35.94Z"/><path id="_Контур_6" data-name="&lt;Контур&gt;" d="M86.56,146.34a1.36,1.36,0,1,0-.16,2.72h.08a1.36,1.36,0,0,0,.08-2.72Z"/><path id="_Контур_7" data-name="&lt;Контур&gt;" d="M102.43,145a1.36,1.36,0,0,0,.32,2.69l.33,0a1.39,1.39,0,0,0,1-1.65A1.37,1.37,0,0,0,102.43,145Z"/><path id="_Контур_8" data-name="&lt;Контур&gt;" d="M100.18,36.86A1.34,1.34,0,0,0,98.59,38a1.36,1.36,0,0,0,1.09,1.59l.25,0a1.36,1.36,0,0,0,.25-2.71Z"/><path id="_Контур_9" data-name="&lt;Контур&gt;" d="M98.52,145.74h0a1.37,1.37,0,0,0,.22,2.72h.22a1.37,1.37,0,0,0-.42-2.71Z"/><path id="_Контур_10" data-name="&lt;Контур&gt;" d="M94.54,146.23a1.37,1.37,0,0,0,.12,2.73h.12A1.4,1.4,0,0,0,96,147.47,1.38,1.38,0,0,0,94.54,146.23Z"/><path id="_Контур_11" data-name="&lt;Контур&gt;" d="M96,36.24h0A1.37,1.37,0,1,0,95.73,39h.15A1.37,1.37,0,0,0,96,36.24Z"/><path id="_Контур_12" data-name="&lt;Контур&gt;" d="M79.3,36.9a1.36,1.36,0,0,0,.25,2.71.84.84,0,0,0,.26,0,1.36,1.36,0,1,0-.51-2.68Z"/><path id="_Контур_13" data-name="&lt;Контур&gt;" d="M104.28,37.77a1.35,1.35,0,0,0-1.67,1,1.37,1.37,0,0,0,1,1.67,1.46,1.46,0,0,0,.34,0,1.39,1.39,0,0,0,1.33-1A1.36,1.36,0,0,0,104.28,37.77Z"/><path id="_Контур_14" data-name="&lt;Контур&gt;" d="M69.08,41.3a1.37,1.37,0,1,0-2.5,1.09,1.37,1.37,0,0,0,1.26.82,1.48,1.48,0,0,0,.53-.11A1.37,1.37,0,0,0,69.08,41.3Z"/><path id="_Контур_15" data-name="&lt;Контур&gt;" d="M67.27,141.5a1.34,1.34,0,0,0-1.8.66,1.36,1.36,0,0,0,.66,1.82h0a1.34,1.34,0,0,0,.56.12,1.36,1.36,0,0,0,.57-2.6Z"/><path id="_Контур_16" data-name="&lt;Контур&gt;" d="M63.72,139.68a1.37,1.37,0,0,0-1.33,2.39h0a1.48,1.48,0,0,0,.67.16,1.35,1.35,0,0,0,1.19-.7A1.37,1.37,0,0,0,63.72,139.68Z"/><path id="_Контур_17" data-name="&lt;Контур&gt;" d="M61.74,44.94a1.36,1.36,0,0,0-1.87-.44A1.37,1.37,0,0,0,60.59,47a1.42,1.42,0,0,0,.72-.2A1.37,1.37,0,0,0,61.74,44.94Z"/><path id="_Контур_18" data-name="&lt;Контур&gt;" d="M71,143a1.37,1.37,0,1,0-1,2.57h0a1.53,1.53,0,0,0,.48.08A1.37,1.37,0,0,0,71,143Z"/><path id="_Контур_19" data-name="&lt;Контур&gt;" d="M75.2,37.83a1.36,1.36,0,0,0,.36,2.68,1.67,1.67,0,0,0,.36,0,1.37,1.37,0,1,0-.71-2.64Z"/><path id="_Контур_20" data-name="&lt;Контур&gt;" d="M78.65,145.27a1.36,1.36,0,1,0-.57,2.67,1,1,0,0,0,.29,0,1.36,1.36,0,0,0,.29-2.69Z"/><path id="_Контур_21" data-name="&lt;Контур&gt;" d="M74.76,144.29a1.37,1.37,0,0,0-.77,2.62,1.23,1.23,0,0,0,.38.05,1.37,1.37,0,0,0,.38-2.68Z"/><path id="_Контур_22" data-name="&lt;Контур&gt;" d="M71.18,39.06a1.37,1.37,0,0,0,.45,2.67,1.26,1.26,0,0,0,.45-.08,1.37,1.37,0,1,0-.9-2.58Z"/><path id="_Контур_23" data-name="&lt;Контур&gt;" d="M65.34,43a1.37,1.37,0,1,0-1.22,2,1.34,1.34,0,0,0,.64-.15A1.37,1.37,0,0,0,65.34,43Z"/><path id="_Контур_24" data-name="&lt;Контур&gt;" d="M138.52,118.79a1.37,1.37,0,1,0-.68,2.54,1.39,1.39,0,0,0,1.19-.68A1.36,1.36,0,0,0,138.52,118.79Z"/><path id="_Контур_25" data-name="&lt;Контур&gt;" d="M140.32,115.1a1.38,1.38,0,0,0-1.82.66,1.36,1.36,0,0,0,.64,1.82,1.53,1.53,0,0,0,.59.14,1.37,1.37,0,0,0,.59-2.61Z"/><path id="_Контур_26" data-name="&lt;Контур&gt;" d="M134.54,122.69h0a1.37,1.37,0,0,0,.37,1.9,1.33,1.33,0,0,0,.77.23,1.35,1.35,0,0,0,1.13-.6,1.37,1.37,0,0,0-.37-1.9A1.35,1.35,0,0,0,134.54,122.69Z"/><path id="_Контур_27" data-name="&lt;Контур&gt;" d="M129.58,129a1.37,1.37,0,0,0,1,2.3,1.31,1.31,0,0,0,1-.45,1.36,1.36,0,1,0-2-1.85Z"/><path id="_Контур_28" data-name="&lt;Контур&gt;" d="M132.18,125.92a1.36,1.36,0,0,0,1.07,2.21,1.39,1.39,0,0,0,1.08-.52,1.37,1.37,0,0,0-.23-1.91A1.35,1.35,0,0,0,132.18,125.92Z"/><path id="_Контур_29" data-name="&lt;Контур&gt;" d="M141.87,111.3a1.37,1.37,0,1,0-1,2.54,1.26,1.26,0,0,0,.49.1,1.38,1.38,0,0,0,1.28-.87A1.37,1.37,0,0,0,141.87,111.3Z"/><path id="_Контур_30" data-name="&lt;Контур&gt;" d="M144.71,99.36a1.37,1.37,0,0,0-.4,2.71h.2a1.39,1.39,0,0,0,1.35-1.16A1.37,1.37,0,0,0,144.71,99.36Z"/><path id="_Контур_31" data-name="&lt;Контур&gt;" d="M145.07,95.27a1.37,1.37,0,0,0-.21,2.73H145a1.37,1.37,0,0,0,.1-2.73Z"/><path id="_Контур_32" data-name="&lt;Контур&gt;" d="M143.11,107.39a1.36,1.36,0,1,0-.79,2.61,1.25,1.25,0,0,0,.4.07,1.39,1.39,0,0,0,1.31-1A1.37,1.37,0,0,0,143.11,107.39Z"/><path id="_Контур_33" data-name="&lt;Контур&gt;" d="M144.07,103.4a1.37,1.37,0,1,0-.6,2.67,1.14,1.14,0,0,0,.3,0,1.37,1.37,0,0,0,.3-2.71Z"/><path id="_Контур_34" data-name="&lt;Контур&gt;" d="M126.76,131.81h0a1.35,1.35,0,0,0-.07,1.93,1.37,1.37,0,0,0,1,.44,1.33,1.33,0,0,0,.93-.37h0a1.37,1.37,0,0,0-1.89-2Z"/><path id="_Контур_35" data-name="&lt;Контур&gt;" d="M113.68,140.9a1.36,1.36,0,0,0,.62,2.58,1.33,1.33,0,0,0,.6-.14,1.37,1.37,0,0,0-1.22-2.45Z"/><path id="_Контур_36" data-name="&lt;Контур&gt;" d="M116,42.31a1.36,1.36,0,1,0-1.26,2.42,1.26,1.26,0,0,0,.63.15,1.36,1.36,0,0,0,.63-2.57Z"/><path id="_Контур_37" data-name="&lt;Контур&gt;" d="M112.22,40.51a1.36,1.36,0,0,0-1.08,2.5,1.3,1.3,0,0,0,.55.11,1.38,1.38,0,0,0,1.26-.82A1.36,1.36,0,0,0,112.22,40.51Z"/><path id="_Контур_38" data-name="&lt;Контур&gt;" d="M110,142.52a1.37,1.37,0,0,0-.76,1.78,1.37,1.37,0,1,0,2.54-1A1.36,1.36,0,0,0,110,142.52Z"/><path id="_Контур_39" data-name="&lt;Контур&gt;" d="M108.29,39a1.37,1.37,0,0,0-.89,2.58,1.72,1.72,0,0,0,.45.07,1.36,1.36,0,0,0,.44-2.65Z"/><path id="_Контур_40" data-name="&lt;Контур&gt;" d="M106.29,143.89a1.36,1.36,0,0,0,.41,2.67,1.54,1.54,0,0,0,.42-.07,1.37,1.37,0,0,0,.87-1.72A1.35,1.35,0,0,0,106.29,143.89Z"/><path id="_Контур_41" data-name="&lt;Контур&gt;" d="M123.75,134.43a1.37,1.37,0,0,0-.19,1.93,1.36,1.36,0,0,0,1.91.2,1.37,1.37,0,1,0-1.72-2.13Z"/><path id="_Контур_42" data-name="&lt;Контур&gt;" d="M120.56,136.84a1.37,1.37,0,0,0,.78,2.49,1.42,1.42,0,0,0,.79-.25,1.37,1.37,0,1,0-1.57-2.24Z"/><path id="_Контур_43" data-name="&lt;Контур&gt;" d="M117.19,139a1.36,1.36,0,0,0-.48,1.86,1.37,1.37,0,0,0,1.18.68,1.45,1.45,0,0,0,.7-.19,1.37,1.37,0,0,0,.48-1.87A1.35,1.35,0,0,0,117.19,139Z"/><path id="_Контур_44" data-name="&lt;Контур&gt;" d="M119.67,44.39a1.37,1.37,0,0,0-1.44,2.32,1.34,1.34,0,0,0,.71.2,1.37,1.37,0,0,0,.72-2.53Z"/><path id="_Контур_45" data-name="&lt;Контур&gt;" d="M145,88.3A1.36,1.36,0,0,0,145,91h.07A1.36,1.36,0,1,0,145,88.3Z"/><path id="_Контур_46" data-name="&lt;Контур&gt;" d="M51,54.64a1.31,1.31,0,0,0,1-.4A1.36,1.36,0,0,0,50,52.31a1.37,1.37,0,0,0,0,1.94A1.32,1.32,0,0,0,51,54.64Z"/><path id="_Контур_47" data-name="&lt;Контур&gt;" d="M54,51.87a1.37,1.37,0,1,0-1-.48A1.33,1.33,0,0,0,54,51.87Z"/><path id="_Контур_48" data-name="&lt;Контур&gt;" d="M122.35,49.2a1.37,1.37,0,1,0-.79-.26A1.31,1.31,0,0,0,122.35,49.2Z"/><path id="_Контур_49" data-name="&lt;Контур&gt;" d="M128.59,54.51a1.39,1.39,0,0,0,1-.41,1.36,1.36,0,0,0,0-1.93,1.38,1.38,0,0,0-1.94,0,1.36,1.36,0,0,0,0,1.93A1.34,1.34,0,0,0,128.59,54.51Z"/><path id="_Контур_50" data-name="&lt;Контур&gt;" d="M125.57,51.75a1.37,1.37,0,1,0-.89-.33A1.38,1.38,0,0,0,125.57,51.75Z"/><path id="_Контур_51" data-name="&lt;Контур&gt;" d="M40.52,67.57A1.37,1.37,0,1,0,40,65.71h0A1.37,1.37,0,0,0,40.52,67.57Z"/><path id="_Контур_52" data-name="&lt;Контур&gt;" d="M131.42,57.49a1.32,1.32,0,0,0,.89-.34,1.36,1.36,0,1,0-.89.34Z"/><path id="_Контур_53" data-name="&lt;Контур&gt;" d="M42.52,64a1.4,1.4,0,0,0,.74.2,1.37,1.37,0,1,0-1.16-2.11A1.39,1.39,0,0,0,42.52,64Z"/><path id="_Контур_54" data-name="&lt;Контур&gt;" d="M45.58,60.84a1.32,1.32,0,0,0,1.09-.56,1.36,1.36,0,0,0-2.19-1.63,1.37,1.37,0,0,0,.27,1.91A1.4,1.4,0,0,0,45.58,60.84Z"/><path id="_Контур_55" data-name="&lt;Контур&gt;" d="M48.16,57.64a1.34,1.34,0,0,0,1-.47,1.38,1.38,0,1,0-1,.47Z"/><path id="_Контур_56" data-name="&lt;Контур&gt;" d="M135.2,63.4a1.37,1.37,0,0,0,1.15.62,1.41,1.41,0,0,0,.74-.2,1.36,1.36,0,0,0,.41-1.89h0a1.37,1.37,0,1,0-2.3,1.49Z"/><path id="_Контур_57" data-name="&lt;Контур&gt;" d="M141.74,77.92a1.36,1.36,0,0,0,1.31,1,1.72,1.72,0,0,0,.37-.05,1.37,1.37,0,1,0-1.68-.94Z"/><path id="_Контур_58" data-name="&lt;Контур&gt;" d="M143.33,85.74a1.36,1.36,0,0,0,1.35,1.2h.16a1.36,1.36,0,1,0-.34-2.71A1.35,1.35,0,0,0,143.33,85.74Z"/><path id="_Контур_59" data-name="&lt;Контур&gt;" d="M143.74,80.19A1.37,1.37,0,0,0,144,82.9l.27,0a1.37,1.37,0,1,0-.55-2.68Z"/><path id="_Контур_60" data-name="&lt;Контур&gt;" d="M145.11,91.18a1.36,1.36,0,0,0,0,2.72,1.36,1.36,0,1,0,0-2.72Z"/><path id="_Контур_61" data-name="&lt;Контур&gt;" d="M58.4,138a1.36,1.36,0,0,0,.38,1.89,1.29,1.29,0,0,0,.75.23,1.37,1.37,0,0,0,1.15-.62,1.38,1.38,0,0,0-.4-1.9A1.37,1.37,0,0,0,58.4,138Z"/><path id="_Контур_62" data-name="&lt;Контур&gt;" d="M38.81,71.31a1.57,1.57,0,0,0,.55.11,1.36,1.36,0,0,0,.56-2.61,1.37,1.37,0,1,0-1.11,2.5Z"/><path id="_Контур_63" data-name="&lt;Контур&gt;" d="M140.51,74.11a1.36,1.36,0,0,0,1.29.9,1.39,1.39,0,0,0,.46-.08,1.37,1.37,0,1,0-1.75-.82Z"/><path id="_Контур_64" data-name="&lt;Контур&gt;" d="M137.23,66.84a1.38,1.38,0,0,0,1.2.71,1.46,1.46,0,0,0,.66-.16,1.36,1.36,0,1,0-1.86-.55Z"/><path id="_Контур_65" data-name="&lt;Контур&gt;" d="M132.91,60.12a1.36,1.36,0,0,0,1.09.55,1.37,1.37,0,0,0,1.08-2.19,1.36,1.36,0,1,0-2.17,1.64Z"/><path id="_Контур_66" data-name="&lt;Контур&gt;" d="M139,70.42a1.37,1.37,0,0,0,1.24.81,1.33,1.33,0,0,0,.56-.12,1.36,1.36,0,1,0-1.8-.68Z"/><path id="_Контур_67" data-name="&lt;Контур&gt;" d="M37.36,75.15a1.45,1.45,0,0,0,.46.08,1.37,1.37,0,1,0-.46-.08Z"/><path id="_Контур_68" data-name="&lt;Контур&gt;" d="M40.14,113.38a1.37,1.37,0,1,0-1.26,1.89,1.4,1.4,0,0,0,.52-.1A1.38,1.38,0,0,0,40.14,113.38Z"/><path id="_Контур_69" data-name="&lt;Контур&gt;" d="M43.76,120.49a1.35,1.35,0,0,0-1.87-.47,1.37,1.37,0,0,0,.71,2.54,1.41,1.41,0,0,0,.71-.21A1.36,1.36,0,0,0,43.76,120.49Z"/><path id="_Контур_70" data-name="&lt;Контур&gt;" d="M41.82,117a1.38,1.38,0,0,0-1.84-.6,1.36,1.36,0,0,0-.59,1.83,1.34,1.34,0,0,0,1.22.75,1.42,1.42,0,0,0,.62-.15A1.37,1.37,0,0,0,41.82,117Z"/><path id="_Контур_71" data-name="&lt;Контур&gt;" d="M46.48,126.82a1.36,1.36,0,0,0,1.75,2.09,1.36,1.36,0,1,0-1.75-2.09Z"/><path id="_Контур_72" data-name="&lt;Контур&gt;" d="M55.11,135.54a1.37,1.37,0,0,0,.26,1.91,1.36,1.36,0,0,0,1.91-.25,1.36,1.36,0,0,0-.25-1.91A1.37,1.37,0,0,0,55.11,135.54Z"/><path id="_Контур_73" data-name="&lt;Контур&gt;" d="M58.29,47.15a1.37,1.37,0,0,0-1.91-.29,1.37,1.37,0,0,0,.82,2.46,1.36,1.36,0,0,0,1.09-2.17Z"/><path id="_Контур_74" data-name="&lt;Контур&gt;" d="M52,132.85a1.37,1.37,0,0,0,.12,1.93,1.32,1.32,0,0,0,.9.36,1.4,1.4,0,0,0,1-.47A1.37,1.37,0,0,0,52,132.85Z"/><path id="_Контур_75" data-name="&lt;Контур&gt;" d="M49.15,129.93a1.36,1.36,0,0,0,0,1.93,1.4,1.4,0,0,0,1,.42,1.34,1.34,0,0,0,.94-.4,1.36,1.36,0,1,0-1.89-2Z"/><path id="_Контур_76" data-name="&lt;Контур&gt;" d="M46,123.82a1.36,1.36,0,0,0-2.21,1.59,1.36,1.36,0,0,0,1.11.57,1.34,1.34,0,0,0,.79-.26A1.36,1.36,0,0,0,46,123.82Z"/><path id="_Контур_77" data-name="&lt;Контур&gt;" d="M34.59,91.25h.07a1.34,1.34,0,1,0-.07,0Z"/><path id="_Контур_78" data-name="&lt;Контур&gt;" d="M35.38,83.09a.84.84,0,0,0,.26,0,1.37,1.37,0,0,0,.27-2.71,1.37,1.37,0,1,0-.53,2.68Z"/><path id="_Контур_79" data-name="&lt;Контур&gt;" d="M38.73,109.63a1.37,1.37,0,1,0-1.3,1.8,1.61,1.61,0,0,0,.44-.07A1.38,1.38,0,0,0,38.73,109.63Z"/><path id="_Контур_80" data-name="&lt;Контур&gt;" d="M36.23,79.08a1.69,1.69,0,0,0,.37,0,1.35,1.35,0,0,0,1.31-1,1.37,1.37,0,1,0-1.68,1Z"/><path id="_Контур_81" data-name="&lt;Контур&gt;" d="M34.84,87.15H35a1.39,1.39,0,1,0-.16,0Z"/><path id="_Контур_82" data-name="&lt;Контур&gt;" d="M36.61,107.46a1.37,1.37,0,0,0,1-1.65,1.37,1.37,0,1,0-2.65.67,1.36,1.36,0,0,0,1.65,1Z"/><path id="_Контур_83" data-name="&lt;Контур&gt;" d="M35.66,103.48a1.38,1.38,0,0,0,1.12-1.59,1.36,1.36,0,0,0-1.59-1.11,1.36,1.36,0,0,0,.23,2.71Z"/><path id="_Контур_84" data-name="&lt;Контур&gt;" d="M35,99.44a1.37,1.37,0,0,0-.27-2.73,1.37,1.37,0,0,0,.14,2.73Z"/><path id="_Контур_85" data-name="&lt;Контур&gt;" d="M34.62,95.35h0A1.39,1.39,0,0,0,36,93.94a1.37,1.37,0,0,0-1.41-1.33A1.35,1.35,0,0,0,33.25,94,1.37,1.37,0,0,0,34.62,95.35Z"/><path id="_Контур_86" data-name="&lt;Контур&gt;" d="M24,144.45a83.78,83.78,0,0,1-.9-102.67L21,40.12a86.51,86.51,0,0,0,.93,106Z"/><path id="_Контур_87" data-name="&lt;Контур&gt;" d="M157.83,146.14a86.52,86.52,0,0,0,.93-106l-2.18,1.66a83.78,83.78,0,0,1-.9,102.67Z"/></g></g></g></svg>