<!-- Generated by IcoMoon.io -->
<svg version="1.1" xmlns="http://www.w3.org/2000/svg" width="32" height="32" viewBox="0 0 32 32">
<title>basket</title>
<path d="M29.108 0.95c-0.481-0.522-1.445-0.95-2.151-0.95h-21.976c-0.707 0-1.671 0.433-2.136 0.964l-2.155 2.442c-0.468 0.529-0.771 1.542-0.672 2.236l3.501 25.085c0.123 0.713 0.727 1.252 1.46 1.272l21.978 0c0.737-0.021 1.343-0.559 1.468-1.263l3.619-25.095c0.1-0.699-0.206-1.699-0.682-2.222zM15.969 18.618c-4.596 0-8.321-3.726-8.321-8.321h0.546c0.707 0 1.285 0 1.285 0.010s0.104 0.59 0.233 1.285c0 0 0.32 1.74 1.24 2.865 1.205 1.462 3.017 2.388 5.044 2.388 3.6 0 6.519-2.917 6.522-6.516 0-0.011 0-0.022 0-0.032h1.768c0 0 0 0.001 0 0.001 0 4.594-3.723 8.319-8.317 8.321zM28.242 2.827c0 0.495-0.578 0.9-1.285 0.9h-21.976c-0.707 0-1.285-0.405-1.285-0.9s0.578-0.9 1.285-0.9h21.976c0.707 0 1.285 0.405 1.285 0.9z"></path>
</svg>
