<!-- Generated by IcoMoon.io -->
<svg version="1.1" xmlns="http://www.w3.org/2000/svg" width="32" height="32" viewBox="0 0 32 32">
<title>google-plus</title>
<path d="M18.413 20.375c-0.34-0.455-0.715-0.879-1.125-1.269s-0.821-0.747-1.231-1.067c-0.41-0.32-0.785-0.628-1.125-0.923s-0.615-0.602-0.827-0.923-0.317-0.647-0.317-0.981c0-0.462 0.148-0.894 0.442-1.298s0.654-0.795 1.077-1.173c0.423-0.378 0.846-0.792 1.269-1.24s0.782-1.042 1.077-1.779c0.295-0.737 0.442-1.58 0.442-2.529 0-1.128-0.25-2.212-0.75-3.25s-1.205-1.846-2.115-2.423h2.596l2.596-1.519h-8.403c-1.192 0-2.391 0.128-3.596 0.385-1.782 0.397-3.282 1.305-4.5 2.721s-1.827 3.022-1.827 4.817c0 1.897 0.683 3.474 2.048 4.731s3.003 1.884 4.913 1.884c0.385 0 0.833-0.032 1.346-0.096-0.026 0.102-0.070 0.24-0.134 0.413s-0.116 0.311-0.154 0.414c-0.038 0.102-0.071 0.227-0.096 0.375s-0.038 0.298-0.038 0.452c0 0.846 0.41 1.801 1.231 2.865-0.974 0.026-1.936 0.112-2.884 0.26s-1.942 0.378-2.981 0.692c-1.038 0.314-1.968 0.769-2.788 1.365s-1.436 1.304-1.846 2.125c-0.474 0.949-0.712 1.814-0.712 2.596 0 0.859 0.192 1.638 0.577 2.337s0.878 1.269 1.481 1.711c0.603 0.443 1.298 0.814 2.087 1.116s1.57 0.516 2.346 0.644c0.776 0.128 1.542 0.192 2.298 0.192 3.436 0 6.128-0.84 8.077-2.519 1.795-1.564 2.692-3.372 2.692-5.423 0-0.731-0.106-1.413-0.317-2.048s-0.487-1.18-0.827-1.635zM11 13.385c-0.654 0-1.276-0.167-1.865-0.5s-1.090-0.766-1.5-1.298c-0.41-0.532-0.769-1.131-1.077-1.798s-0.535-1.333-0.683-2c-0.147-0.666-0.221-1.301-0.221-1.904 0-1.231 0.327-2.288 0.981-3.173s1.577-1.327 2.769-1.327c0.846 0 1.612 0.263 2.298 0.788s1.224 1.192 1.615 2c0.391 0.808 0.692 1.644 0.904 2.509s0.317 1.683 0.317 2.452c0 1.282-0.279 2.311-0.836 3.087s-1.458 1.163-2.702 1.163zM16.317 27.826c-0.352 0.603-0.83 1.074-1.432 1.413s-1.247 0.59-1.933 0.75c-0.686 0.161-1.407 0.241-2.163 0.241-0.821 0-1.635-0.096-2.442-0.289s-1.58-0.484-2.317-0.875c-0.737-0.391-1.333-0.929-1.788-1.615s-0.683-1.465-0.683-2.337c0-0.769 0.173-1.455 0.519-2.058s0.789-1.083 1.327-1.442c0.538-0.359 1.167-0.654 1.885-0.884s1.41-0.391 2.077-0.481c0.666-0.090 1.346-0.134 2.038-0.134 0.423 0 0.744 0.013 0.962 0.038 0.077 0.052 0.272 0.186 0.587 0.404s0.526 0.366 0.635 0.443c0.109 0.077 0.308 0.224 0.596 0.442s0.493 0.381 0.615 0.49c0.121 0.109 0.298 0.272 0.529 0.49s0.401 0.407 0.51 0.567c0.109 0.16 0.244 0.356 0.404 0.586s0.272 0.452 0.337 0.664c0.064 0.212 0.125 0.442 0.182 0.692s0.086 0.51 0.086 0.779c0 0.807-0.176 1.513-0.529 2.115z"></path>
<path d="M27.077 4.923v-4.923h-2.462v4.923h-4.923v2.462h4.923v4.923h2.462v-4.923h4.923v-2.462z"></path>
</svg>
