<!-- Generated by IcoMoon.io -->
<svg version="1.1" xmlns="http://www.w3.org/2000/svg" width="32" height="32" viewBox="0 0 32 32">
<title>padlock</title>
<path d="M28.454 15.182c-0.424-0.424-0.939-0.636-1.546-0.636h-0.727v-4.364c0-2.788-1-5.182-3-7.182s-4.393-3-7.182-3c-2.788 0-5.182 1-7.182 3s-3 4.394-3 7.182v4.364h-0.727c-0.606 0-1.121 0.212-1.545 0.636s-0.636 0.939-0.636 1.546v13.091c0 0.606 0.212 1.121 0.636 1.546s0.94 0.636 1.545 0.636h21.818c0.606 0 1.121-0.212 1.546-0.636s0.636-0.94 0.636-1.546v-13.091c0-0.606-0.212-1.121-0.637-1.545zM21.818 14.546h-11.636v-4.364c0-1.606 0.568-2.977 1.705-4.113s2.508-1.704 4.114-1.704c1.606 0 2.977 0.568 4.114 1.704s1.704 2.507 1.704 4.113v4.364z"></path>
</svg>
