<!-- Generated by IcoMoon.io -->
<svg version="1.1" xmlns="http://www.w3.org/2000/svg" width="32" height="32" viewBox="0 0 32 32">
<title>placeholder</title>
<path d="M15.545 0.008c-6.358 0.223-11.639 5.183-12.25 11.515-0.125 1.266-0.053 2.493 0.171 3.668v0c0 0 0.020 0.138 0.085 0.4 0.197 0.879 0.492 1.732 0.86 2.533 1.279 3.031 4.238 8.103 10.878 13.621 0.407 0.341 1.004 0.341 1.417 0 6.64-5.511 9.599-10.583 10.885-13.627 0.374-0.8 0.663-1.647 0.86-2.533 0.059-0.256 0.085-0.4 0.085-0.4v0c0.151-0.787 0.23-1.594 0.23-2.421 0-7.204-5.964-13.011-13.221-12.755zM15.998 19.114c-3.425 0-6.2-2.775-6.2-6.2s2.775-6.2 6.2-6.2 6.2 2.775 6.2 6.2-2.775 6.2-6.2 6.2z"></path>
</svg>
