<!-- Generated by IcoMoon.io -->
<svg version="1.1" xmlns="http://www.w3.org/2000/svg" width="32" height="32" viewBox="0 0 32 32">
<title>upload-cloud</title>
<path d="M29.213 16.095c0.111-0.549 0.17-1.117 0.17-1.699 0-4.704-3.814-8.518-8.518-8.518-3.489 0-6.486 2.098-7.803 5.101-1.012-0.659-2.218-1.046-3.515-1.046-3.412 0-6.198 2.65-6.43 6.002-1.838 0.843-3.116 2.695-3.116 4.849 0 2.948 2.39 5.337 5.338 5.337 0 0 5.782 0 7.71 0 0.378 0 0.396-0.419 0.396-0.419v-3.424c0-0.293-0.239-0.532-0.532-0.532h-1.458c-0.293 0-0.389-0.192-0.215-0.427l4.445-6.001c0.174-0.235 0.459-0.235 0.633 0l4.445 6.001c0.174 0.235 0.077 0.427-0.215 0.427h-1.459c-0.292 0-0.532 0.239-0.532 0.532v3.431c0 0 0.022 0.413 0.414 0.413 1.923 0 7.692 0 7.692 0 2.948 0 5.338-2.39 5.338-5.338 0-2.024-1.127-3.784-2.787-4.689z"></path>
</svg>
