<?xml version="1.0" encoding="utf-8"?>
<!-- Generator: Adobe Illustrator 21.0.0, SVG Export Plug-In . SVG Version: 6.00 Build 0)  -->
<svg version="1.1" id="Layer_1" xmlns="http://www.w3.org/2000/svg" xmlns:xlink="http://www.w3.org/1999/xlink" x="0px" y="0px"
	 viewBox="0 0 100.9 100.9" style="enable-background:new 0 0 100.9 100.9;" xml:space="preserve">
<style type="text/css">
	.st0{fill-rule:evenodd;clip-rule:evenodd;fill:#FFFFFF;}
	.st1{fill:#909090;}
</style>
<path class="st0" d="M50.4,0c27.9,0,50.4,22.6,50.4,50.4c0,27.9-22.6,50.4-50.4,50.4C22.6,100.9,0,78.3,0,50.4C0,22.6,22.6,0,50.4,0
	z"/>
<path id="XMLID_968_" class="st1" d="M50.6,26c1.6-3.5,4.4-5.8,8-7.1c0.7-0.2,1.5-0.4,2.2-0.5c0.3-0.1,0.4,0.1,0.4,0.4
	c0,0.3,0.1,0.7,0,0.9c0,2.7-0.9,5-2.2,7.1c-1.6,2.3-3.7,4-6.4,4.9c-0.8,0.3-1.7,0.4-2.5,0.4c-0.3,0-0.5-0.1-0.5-0.5
	C49.4,29.6,49.8,27.8,50.6,26z M74.7,60.5c-1.7,4-4,7.6-6.8,10.9c-1,1.1-2.1,2.1-3.4,2.8c-2.1,1.2-4.2,1.2-6.3,0.2
	c-0.9-0.4-1.7-0.8-2.7-1.1c-3-0.9-5.9-0.8-8.7,0.4c-0.7,0.3-1.5,0.7-2.2,0.9c-2.8,1-5.3,0.4-7.5-1.4c-1.4-1.1-2.5-2.4-3.6-3.8
	c-2.4-3.2-4.3-6.8-5.6-10.6c-0.9-2.7-1.5-5.6-1.6-8.4c-0.2-3.2,0.1-6.3,1.4-9.2c2-4.6,5.4-7.7,10.2-9.1c0.9-0.3,1.9-0.4,2.8-0.4
	c2,0,3.7,0.5,5.5,1.1c1.1,0.4,2.1,0.8,3.2,1c2,0.5,3.9,0.3,5.7-0.4c1.3-0.5,2.7-1,4.1-1.4c4.2-1,8,0,11.4,2.6
	c0.9,0.7,1.8,1.5,2.5,2.4c0.3,0.3,0.3,0.4-0.1,0.7c-3.5,2.1-5.6,5.3-5.9,9.4c-0.3,3.8,0.8,7.2,3.5,10c1.2,1.2,2.5,2.1,4.1,2.8
	C74.8,60,74.9,60.1,74.7,60.5z"/>
</svg>
