<?xml version="1.0" encoding="utf-8"?>
<!-- Generator: Adobe Illustrator 21.0.0, SVG Export Plug-In . SVG Version: 6.00 Build 0)  -->
<svg version="1.1" id="Layer_1" xmlns="http://www.w3.org/2000/svg" xmlns:xlink="http://www.w3.org/1999/xlink" x="0px" y="0px"
	 viewBox="0 0 100.9 100.9" style="enable-background:new 0 0 100.9 100.9;" xml:space="preserve">
<style type="text/css">
	.st0{fill-rule:evenodd;clip-rule:evenodd;fill:#FFFFFF;}
	.st1{fill-rule:evenodd;clip-rule:evenodd;fill:#21449E;}
</style>
<path class="st0" d="M50.4,0c27.9,0,50.4,22.6,50.4,50.4c0,27.9-22.6,50.4-50.4,50.4C22.6,100.9,0,78.3,0,50.4C0,22.6,22.6,0,50.4,0
	z"/>
<g>
	<g>
		<path class="st1" d="M34.5,49.2H20.2c-1.1,0-2.1,1.1-2.1,2.1v21.5c0,1.1,1,2.1,2.1,2.1h14.3c1,0,2.1-1,2.1-2.1V51.4
			C36.6,50.3,35.6,49.2,34.5,49.2z M29.4,72.8c0,0-0.2,0.1-0.4,0.1h-3.3c-0.2,0-0.4,0-0.4-0.1v-0.8c0,0,0.2-0.1,0.4-0.1H29
			c0.2,0,0.4,0,0.4,0.1V72.8z M41.8,67.8c-0.6,0-1.2,0.1-1.2,0.1v1.7c0,0.1,0.5,0.1,1.2,0.1H60c0.6,0,1.2-0.1,1.2-0.1v-1.7
			c0-0.1-0.5-0.1-1.2-0.1H41.8z M68.4,47.2V31.8H27.3c-1.7,0-3.1,1.4-3.1,3.1v13.3h10.3c1.7,0,3.1,1.4,3.1,3.1v13.4h37
			c1.7,0,3.1-1.4,3.1-3.1V50.3h-6.1C69.8,50.3,68.4,48.9,68.4,47.2z M80.7,23.6h-9.3c-1,0-2,1.1-2,2.1v21.5c0,1.1,1,2,2.1,2h9.2
			c1,0,2.1-1,2.1-2.1V25.6C82.8,24.6,81.7,23.6,80.7,23.6z M73.5,25.7c0,0,0.2-0.1,0.4-0.1h4.4c0.2,0,0.4,0,0.4,0.1v0.9
			c0,0-0.2,0.1-0.4,0.1h-4.4c-0.2,0-0.4,0-0.4-0.1V25.7z M78.7,47.1c0,0-0.2,0.1-0.4,0.1h-4.5c-0.2,0-0.4,0-0.4-0.1v-0.9
			c0,0,0.2-0.1,0.4-0.1h4.5c0.2,0,0.4,0,0.4,0.1V47.1z"/>
	</g>
</g>
</svg>
