<?xml version="1.0" encoding="utf-8"?>
<!-- Generator: Adobe Illustrator 21.0.0, SVG Export Plug-In . SVG Version: 6.00 Build 0)  -->
<svg version="1.1" id="Layer_1" xmlns="http://www.w3.org/2000/svg" xmlns:xlink="http://www.w3.org/1999/xlink" x="0px" y="0px"
	 viewBox="0 0 100.9 100.9" style="enable-background:new 0 0 100.9 100.9;" xml:space="preserve">
<style type="text/css">
	.st0{fill-rule:evenodd;clip-rule:evenodd;fill:#FFFFFF;}
	.st1{fill-rule:evenodd;clip-rule:evenodd;fill:#0CB2ED;}
</style>
<path class="st0" d="M50.4,0c27.9,0,50.4,22.6,50.4,50.4c0,27.9-22.6,50.4-50.4,50.4C22.6,100.9,0,78.3,0,50.4C0,22.6,22.6,0,50.4,0
	z"/>
<g>
	<g>
		<path class="st1" d="M20.6,49.3l19.2,0V28.4l-19.1,3.9L20.6,49.3z M42.3,73l30.6,6.1V51.8H42.3V73z M42.3,27.9v21.4l30.6,0V21.8
			L42.3,27.9z M20.7,68.7l19.1,3.9V51.7l-19.2,0L20.7,68.7z"/>
	</g>
</g>
</svg>
