<?xml version="1.0" encoding="iso-8859-1"?>
<!-- Generator: Adobe Illustrator 19.0.0, SVG Export Plug-In . SVG Version: 6.00 Build 0)  -->
<svg version="1.1" id="Layer_1" xmlns="http://www.w3.org/2000/svg" xmlns:xlink="http://www.w3.org/1999/xlink" x="0px" y="0px"
	 viewBox="0 0 512 512" style="enable-background:new 0 0 512 512;" xml:space="preserve">
<g>
	<g>
		<g>
			<path d="M362.667,277.333V128c0-29.397-23.936-53.333-53.333-53.333h-256C23.936,74.667,0,98.603,0,128v149.333
				c0,24.363,16.405,44.949,38.741,51.307c-3.797,4.885-7.957,9.877-12.309,14.827c-0.064,0.085-0.149,0.171-0.213,0.256
				c-3.157,3.285-4.885,7.531-4.885,11.968c0,9.707,8.107,17.6,18.091,17.6c0.661,0,74.411-9.984,113.792-42.624h156.117
				C338.731,330.667,362.667,306.731,362.667,277.333z"/>
			<path d="M458.667,138.709l-64-0.043c-2.816,0-5.547,1.131-7.552,3.115c-2.005,1.984-3.115,4.715-3.115,7.552v128
				C384,318.507,350.507,352,309.333,352H165.696c-3.819,0-7.339,2.027-9.237,5.333c-1.899,3.285-1.899,7.36,0,10.667
				c9.493,16.469,27.2,26.709,46.208,26.709h156.117c39.403,32.64,113.152,42.624,113.792,42.624c9.963,0,18.091-7.893,18.091-17.6
				c0-4.437-1.749-8.725-4.779-11.904c-0.085-0.085-5.867-6.464-12.629-15.147C495.595,386.325,512,365.739,512,341.376V192.043
				C512,162.645,488.064,138.709,458.667,138.709z"/>
		</g>
	</g>
</g>
<g>
</g>
<g>
</g>
<g>
</g>
<g>
</g>
<g>
</g>
<g>
</g>
<g>
</g>
<g>
</g>
<g>
</g>
<g>
</g>
<g>
</g>
<g>
</g>
<g>
</g>
<g>
</g>
<g>
</g>
</svg>
