<?xml version="1.0" encoding="iso-8859-1"?>
<!-- Generator: Adobe Illustrator 16.0.0, SVG Export Plug-In . SVG Version: 6.00 Build 0)  -->
<!DOCTYPE svg PUBLIC "-//W3C//DTD SVG 1.1//EN" "http://www.w3.org/Graphics/SVG/1.1/DTD/svg11.dtd">
<svg version="1.1" id="Capa_1" xmlns="http://www.w3.org/2000/svg" xmlns:xlink="http://www.w3.org/1999/xlink" x="0px" y="0px"
	 width="31.744px" height="31.744px" viewBox="0 0 31.744 31.744" style="enable-background:new 0 0 31.744 31.744;"
	 xml:space="preserve">
<g>
	<g>
		<path d="M15.872,0C7.12,0,0,7.12,0,15.872c0,8.752,7.12,15.873,15.872,15.873s15.872-7.12,15.872-15.873
			C31.744,7.12,24.624,0,15.872,0z M15.872,29.173c-7.333,0-13.3-5.968-13.3-13.301c0-7.333,5.966-13.3,13.3-13.3
			s13.3,5.966,13.3,13.3C29.171,23.205,23.205,29.173,15.872,29.173z"/>
		<path d="M15.872,6.099c-5.389,0-9.773,4.384-9.773,9.773c0,5.389,4.384,9.773,9.773,9.773c5.389,0,9.772-4.385,9.772-9.773
			C25.645,10.484,21.26,6.099,15.872,6.099z M15.872,23.072c-3.971,0-7.201-3.229-7.201-7.201c0-3.971,3.231-7.201,7.201-7.201
			c3.97,0,7.2,3.23,7.2,7.201C23.072,19.843,19.842,23.072,15.872,23.072z"/>
		<circle cx="15.872" cy="15.872" r="3.783"/>
	</g>
</g>
<g>
</g>
<g>
</g>
<g>
</g>
<g>
</g>
<g>
</g>
<g>
</g>
<g>
</g>
<g>
</g>
<g>
</g>
<g>
</g>
<g>
</g>
<g>
</g>
<g>
</g>
<g>
</g>
<g>
</g>
</svg>
