<?xml version="1.0" encoding="iso-8859-1"?>
<!-- Generator: Adobe Illustrator 19.0.0, SVG Export Plug-In . SVG Version: 6.00 Build 0)  -->
<svg version="1.1" id="Layer_1" xmlns="http://www.w3.org/2000/svg" xmlns:xlink="http://www.w3.org/1999/xlink" x="0px" y="0px"
	 viewBox="0 0 512 512" style="enable-background:new 0 0 512 512;" xml:space="preserve">
<g>
	<g>
		<g>
			<path d="M314.773,348.608l-58.795-14.677l-4.331-17.429c15.552-15.915,26.304-37.248,29.888-59.264
				c9.195-3.264,16.128-11.499,17.365-21.632l3.947-31.531c0.939-7.467-1.365-14.976-6.315-20.629
				c-2.411-2.773-5.376-4.992-8.64-6.528l1.301-26.667l5.184-5.205c9.557-10.176,17.536-27.563,1.152-52.565
				C283.179,73.579,262.293,64,233.493,64c-11.115,0-36.629,0-60.651,15.829c-69.248,1.728-78.229,35.989-78.229,65.792
				c0,6.763,1.472,20.992,2.603,30.784c-3.669,1.515-6.976,3.883-9.664,6.912c-5.013,5.696-7.36,13.269-6.4,20.779l3.947,31.531
				c1.344,10.816,9.173,19.477,19.264,22.229c3.563,21.077,13.76,41.643,28.373,57.237l-4.715,18.859l-58.795,14.677
				C28.459,358.827,0,395.285,0,437.291c0,5.888,4.779,10.667,10.667,10.667L373.333,448c2.837,0,5.547-1.152,7.552-3.136
				c2.005-1.984,3.115-4.757,3.115-7.595C384,395.264,355.541,358.784,314.773,348.608z"/>
			<path d="M442.773,348.608l-58.795-14.677l-4.331-17.429c15.552-15.915,26.304-37.248,29.888-59.264
				c9.195-3.264,16.128-11.499,17.365-21.632l3.947-31.531c0.939-7.467-1.365-14.976-6.315-20.629
				c-2.411-2.773-5.376-4.992-8.64-6.528l1.301-26.667l5.184-5.205c9.557-10.197,17.536-27.563,1.173-52.565
				C411.179,73.579,390.293,64,361.493,64c-10.56,0-24.64,0.661-39.787,5.781c-3.029,1.024-5.44,3.349-6.571,6.357
				c-1.131,2.987-0.853,6.336,0.747,9.088c14.571,25.152,13.504,51.029-2.944,70.997c-3.285,3.989-3.243,9.771,0.107,13.696
				c8.619,10.133,12.629,23.552,10.987,36.8l-3.947,31.552c-1.451,11.755-7.317,22.507-16.448,30.293
				c-2.176,1.856-3.52,4.48-3.733,7.339l-2.752,37.184c-0.384,5.184,3.029,9.877,8.064,11.136l14.72,3.669
				c50.283,12.587,85.397,57.579,85.397,109.419c0,5.888,4.779,10.667,10.667,10.667h85.333c5.888,0,10.667-4.821,10.667-10.709
				C512,395.264,483.541,358.784,442.773,348.608z"/>
		</g>
	</g>
</g>
<g>
</g>
<g>
</g>
<g>
</g>
<g>
</g>
<g>
</g>
<g>
</g>
<g>
</g>
<g>
</g>
<g>
</g>
<g>
</g>
<g>
</g>
<g>
</g>
<g>
</g>
<g>
</g>
<g>
</g>
</svg>
