<?xml version="1.0" encoding="utf-8"?>
<!-- Generator: Adobe Illustrator 21.1.0, SVG Export Plug-In . SVG Version: 6.00 Build 0)  -->
<svg version="1.1" id="Capa_1" xmlns="http://www.w3.org/2000/svg" xmlns:xlink="http://www.w3.org/1999/xlink" x="0px" y="0px"
	 viewBox="0 0 50.8 96.1" style="enable-background:new 0 0 50.8 96.1;" xml:space="preserve">
<g>
	<path d="M49.4,0L37.1,0C23.3,0,14.3,9.3,14.3,23.7v10.9H1.9c-1.1,0-1.9,0.9-1.9,2v15.8c0,1.1,0.9,2,1.9,2h12.4v39.9
		c0,1.1,0.9,2,1.9,2h16.2c1.1,0,1.9-0.9,1.9-2V54.3h14.5c1.1,0,1.9-0.9,1.9-2l0-15.8c0-0.5-0.2-1-0.6-1.4s-0.9-0.6-1.4-0.6H34.4
		v-9.2c0-4.4,1-6.7,6.8-6.7l8.3,0c1.1,0,1.9-0.9,1.9-2V2C51.4,0.9,50.5,0,49.4,0z"/>
</g>
</svg>
