<?xml version="1.0" encoding="utf-8"?>
<!-- Generator: Adobe Illustrator 21.0.0, SVG Export Plug-In . SVG Version: 6.00 Build 0)  -->
<svg version="1.1" id="Layer_1" xmlns="http://www.w3.org/2000/svg" xmlns:xlink="http://www.w3.org/1999/xlink" x="0px" y="0px"
	 viewBox="0 0 30.1 46.1" style="enable-background:new 0 0 30.1 46.1;" xml:space="preserve">
<style type="text/css">

</style>
<path fill="#ffffff" class="st0" d="M30.1,41.8c0,2.3-1.8,4.2-4.1,4.2L4.2,46.1c-2.3,0-4.1-1.9-4.1-4.1L0,4.1c0-2.3,1.8-4,4.1-4L26,0
	c2.3,0,4.1,1.8,4.1,4L30.1,41.8z M18,43l0-7l-6,0l0,7L18,43z M3.1,40.1C3.1,42,4.1,43,6,43l3,0l0-7l-6,0L3.1,40.1z M27,5.9
	C27,4,26,3,24.1,3l-18.2,0C4,3.1,3.1,4.1,3.1,6l0,4l24,0L27,5.9z M27,13l-24,0l0,20l24,0L27,13z M27.1,36l-6,0l0,7l3,0
	c1.9,0,3-1,3-2.9L27.1,36z M13.1,5l5,0c0.8,0,1.4,0.8,1.4,1.5C19.4,7.3,18.8,8,18,8l-5,0c-0.8,0-1.4-0.8-1.4-1.5
	C11.7,5.7,12.3,5,13.1,5z"/>
</svg>
