<?xml version="1.0" encoding="utf-8"?>
<!-- Generator: Adobe Illustrator 18.0.0, SVG Export Plug-In . SVG Version: 6.00 Build 0)  -->
<!DOCTYPE svg PUBLIC "-//W3C//DTD SVG 1.1//EN" "http://www.w3.org/Graphics/SVG/1.1/DTD/svg11.dtd">
<svg version="1.1" id="Shape_185_1_" opacity="0.7" xmlns="http://www.w3.org/2000/svg" xmlns:xlink="http://www.w3.org/1999/xlink"
	 x="0px" y="0px" viewBox="0 -25 128 125" enable-background="new 0 -25 128 125" xml:space="preserve">
<g id="Shape_185">
	<g>
		<path fill="#AEB7C3" d="M100.5,37.4c0,19.4-15.7,35.4-35.1,35.4c-17.7,0-32.3-13.1-34.9-30.3l-2.6-0.6C30.2,60.5,45.9,75,65.3,75
			C86.2,75,103,58.1,103,37.6l-2.3-0.6C100.5,37.1,100.5,37.1,100.5,37.4z M65.1,2c6,0,11.7,1.4,16.6,4.3l1.7-1.4
			C78,1.8,71.7,0,64.8,0C48.2,0,34.2,10.5,29.1,25.4h2.6C37.1,11.7,49.9,2,65.1,2z M96.2,20.3l11.4,2.9v-6L87.9,8.6l-9.1,7.1
			L35.3,30L8.8,29.4l26.3,8.9l19.7,2.9l2.6,5.4L53.1,58l2.6,6.6h9.7l-1.2-2.3l-5.4-1.7l-0.6-4.3l8.6-8.3l11.4-2.9l5.1,2.9l3.1-0.9
			l-5.4-6h-7.4l0.3-0.3L83,30.5l5.7-3.1l12,4l2.9-2L96.2,24C96.2,24,96.2,20.3,96.2,20.3z"/>
	</g>
</g>
</svg>
