<?xml version="1.0" encoding="utf-8"?>
<!-- Generator: Adobe Illustrator 21.0.0, SVG Export Plug-In . SVG Version: 6.00 Build 0)  -->
<svg version="1.1" id="Layer_1" xmlns="http://www.w3.org/2000/svg" xmlns:xlink="http://www.w3.org/1999/xlink" x="0px" y="0px"
	 viewBox="0 0 334 353" style="enable-background:new 0 0 334 353;" xml:space="preserve">
<style type="text/css">
	.st0{fill:#FFFFFF;}
	.st1{fill:#F1F1F2;}
	.st2{fill:#E6E7E8;}
	.st3{fill:#FAFAFA;}
	.st4{enable-background:new    ;}
	.st5{fill:#35A0E9;}
</style>
<g>
	<g>
		<image style="overflow:visible;opacity:0.35;enable-background:new    ;" width="334" height="353" xlink:href="528A161E.png" >
		</image>
		<g>
			<g>
				<polygon class="st0" points="94.2,67.3 239.2,67.3 259.2,86.6 259.2,231.3 166.2,274.3 74.2,231.3 74.2,86.6 				"/>
			</g>
			<g>
				
					<image style="overflow:visible;opacity:0.25;enable-background:new    ;" width="216" height="238" xlink:href="528A1611.png"  transform="matrix(1 0 0 1 59 58)">
				</image>
				<g>
					<polygon class="st0" points="94.2,65.3 239.2,65.3 259.2,84.6 259.2,229.3 166.2,272.3 74.2,229.3 74.2,84.6 					"/>
				</g>
			</g>
			<polygon class="st1" points="157.2,174.9 166.2,272.3 259.2,229.3 259.2,85.6 			"/>
			<polygon class="st2" points="74.2,229.3 166.2,272.3 157.2,174.9 			"/>
			<polygon class="st3" points="74.2,229.3 157.2,174.9 74.2,84.6 			"/>
		</g>
	</g>
	<g class="st4">
		<path class="st5" d="M161.4,200.6v-55.6l-13.1,7.1l-7.2-13.8l21.9-12.6h15.1v74.9H161.4z"/>
	</g>
</g>
</svg>
