<?xml version="1.0" encoding="utf-8"?>
<!-- Generator: Adobe Illustrator 21.0.0, SVG Export Plug-In . SVG Version: 6.00 Build 0)  -->
<svg version="1.1" id="Layer_1" xmlns="http://www.w3.org/2000/svg" xmlns:xlink="http://www.w3.org/1999/xlink" x="0px" y="0px"
	 viewBox="0 0 334 353" style="enable-background:new 0 0 334 353;" xml:space="preserve">
<style type="text/css">
	.st0{fill:#FFFFFF;}
	.st1{fill:#E6E7E8;}
	.st2{fill:#F1F1F2;}
	.st3{fill:#FAFAFA;}
	.st4{enable-background:new    ;}
	.st5{fill:#35A0E9;}
</style>
<g>
	<g>
		<image style="overflow:visible;opacity:0.35;enable-background:new    ;" width="334" height="353" xlink:href="21D48360.png" >
		</image>
		<g>
			<g>
				
					<image style="overflow:visible;opacity:0.15;enable-background:new    ;" width="210" height="232" xlink:href="21D48361.png"  transform="matrix(1 0 0 1 62 59)">
				</image>
				<g>
					<polygon class="st0" points="94.2,67.3 239.2,67.3 259.2,86.6 259.2,231.3 166.2,274.3 74.2,231.3 74.2,86.6 					"/>
				</g>
			</g>
			<g>
				
					<image style="overflow:visible;opacity:0.25;enable-background:new    ;" width="216" height="238" xlink:href="21D48367.png"  transform="matrix(1 0 0 1 59 58)">
				</image>
				<g>
					<polygon class="st0" points="94.2,65.3 239.2,65.3 259.2,84.6 259.2,229.3 166.2,272.3 74.2,229.3 74.2,84.6 					"/>
				</g>
			</g>
			<polygon class="st1" points="157.2,174.9 166.2,272.3 259.2,229.3 196.2,165.2 			"/>
			<polygon class="st2" points="74.2,84.6 74.2,229.3 166.2,272.3 157.2,174.9 			"/>
			<polygon class="st3" points="239.2,65.3 208.2,118.9 259.2,84.6 			"/>
			<polygon class="st3" points="208.2,118.9 196.2,165.2 157.2,174.9 74.2,84.6 94.2,65.3 			"/>
		</g>
	</g>
	<g class="st4">
		<path class="st5" d="M169.2,185H193v14.6h-46.9v-14.3c8.4-8.6,9.9-10,16.8-17.9c11.4-13,12.6-13.7,12.6-21.6v-2.1
			c0-4.1-2.7-5.5-9.2-5.5c-5.6,0-14.2,0.9-19.1,2.2l-2.2-14c7.2-1.9,15.4-3,22.2-3c17.9,0,25.1,5.6,25.1,18.2c0,0.1,0,2.9,0,3
			c0,11-0.1,13.1-10.7,25.9C176.1,177.4,172.6,181.4,169.2,185z"/>
	</g>
</g>
</svg>
