<?xml version="1.0" encoding="utf-8"?>
<!-- Generator: Adobe Illustrator 21.0.0, SVG Export Plug-In . SVG Version: 6.00 Build 0)  -->
<svg version="1.1" id="Layer_1" xmlns="http://www.w3.org/2000/svg" xmlns:xlink="http://www.w3.org/1999/xlink" x="0px" y="0px"
	 viewBox="0 0 334 353" style="enable-background:new 0 0 334 353;" xml:space="preserve">
<style type="text/css">
	.st0{fill:#FFFFFF;}
	.st1{fill:#E6E7E8;}
	.st2{fill:#F1F1F2;}
	.st3{fill:#F8F8F8;}
	.st4{fill:#F5F5F5;}
	.st5{fill:#FAFAFA;}
	.st6{enable-background:new    ;}
	.st7{fill:#35A0E9;}
</style>
<g>
	<g>
		<image style="overflow:visible;opacity:0.35;enable-background:new    ;" width="334" height="353" xlink:href="1DE5EF2A.png" >
		</image>
		<g>
			<g>
				
					<image style="overflow:visible;opacity:0.15;enable-background:new    ;" width="210" height="232" xlink:href="1DE5EF2E.png"  transform="matrix(1 0 0 1 62 59)">
				</image>
				<g>
					<polygon class="st0" points="94.1,67.3 239.1,67.3 259.1,86.6 259.1,231.3 166.1,274.3 74.1,231.3 74.1,86.6 					"/>
				</g>
			</g>
			<g>
				
					<image style="overflow:visible;opacity:0.25;enable-background:new    ;" width="216" height="238" xlink:href="1DE5EF29.png"  transform="matrix(1 0 0 1 59 58)">
				</image>
				<g>
					<polygon class="st0" points="94.1,65.3 239.1,65.3 259.1,84.6 259.1,229.3 166.1,272.3 74.1,229.3 74.1,84.6 					"/>
				</g>
			</g>
			<polygon class="st1" points="115.6,202.1 166.1,272.3 259.1,229.3 228.6,178.4 			"/>
			<polygon class="st2" points="115.6,202.1 74.1,229.3 166.1,272.3 			"/>
			<polygon class="st3" points="239.1,65.3 228.6,178.4 259.1,229.3 259.1,84.6 			"/>
			<polygon class="st4" points="115.6,202.1 74.1,84.6 74.1,229.3 			"/>
			<polygon class="st5" points="94.1,65.3 74.1,84.6 115.6,202.1 228.6,178.4 			"/>
		</g>
	</g>
	<g class="st6">
		<path class="st7" d="M161.4,151c7.4,0,9.5-2.1,9.5-7.2V139c0-4.9-2.1-5.9-9.4-5.9c-5.1,0-10.2,0.6-16,1.6l-1.7-13.1
			c6.6-1.4,12.4-2.1,19.3-2.1c19.4,0,24.6,5.8,24.6,17.4v5.5c0,6.8-2.3,12.1-7.8,15.4c6.5,2.9,9.2,7,9.2,14.3v5.9
			c0,11.4-5.3,18.8-26.4,18.8c-7.1,0-13-0.6-19-2.6l1.7-12.9c5.7,1,10,1.5,16.7,1.5c8.1,0,10.3-1.6,10.3-6.1v-5.3
			c0-4.3-2.7-6.1-8.5-6.1h-15.3V151H161.4z"/>
	</g>
</g>
</svg>
